NotoSansKhudawadi-Regular.ufo
<glyph name="uni0965" format="2">
  <advance width="457"/>
  <unicode hex="0965"/>
  <outline>
    <contour>
      <point x="298" y="0" type="line"/>
      <point x="379" y="0" type="line"/>
      <point x="379" y="622" type="line"/>
      <point x="298" y="622" type="line"/>
    </contour>
    <contour>
      <point x="78" y="0" type="line"/>
      <point x="159" y="0" type="line"/>
      <point x="159" y="622" type="line"/>
      <point x="78" y="622" type="line"/>
    </contour>
  </outline>
</glyph>
<glyph name="uni2013" format="2">
  <advance width="500"/>
  <unicode hex="2013"/>
  <outline>
    <contour>
      <point x="40" y="229" type="line"/>
      <point x="460" y="229" type="line"/>
      <point x="460" y="307" type="line"/>
      <point x="40" y="307" type="line"/>
    </contour>
  </outline>
</glyph>
<glyph name="uni2014" format="2">
  <advance width="1000"/>
  <unicode hex="2014"/>
  <outline>
    <contour>
      <point x="40" y="229" type="line"/>
      <point x="960" y="229" type="line"/>
      <point x="960" y="307" type="line"/>
      <point x="40" y="307" type="line"/>
    </contour>
  </outline>
</glyph>
<glyph name="uni25CC" format="2">
  <advance width="594"/>
  <unicode hex="25CC"/>
  <outline>
    <contour>
      <point x="455" y="423" type="curve" smooth="yes"/>
      <point x="470" y="423"/>
      <point x="481" y="434"/>
      <point x="481" y="449" type="curve" smooth="yes"/>
      <point x="481" y="464"/>
      <point x="470" y="475"/>
      <point x="455" y="475" type="curve" smooth="yes"/>
      <point x="440" y="475"/>
      <point x="429" y="464"/>
      <point x="429" y="449" type="curve" smooth="yes"/>
      <point x="429" y="434"/>
      <point x="440" y="423"/>
    </contour>
    <contour>
      <point x="139" y="107" type="curve" smooth="yes"/>
      <point x="154" y="107"/>
      <point x="165" y="118"/>
      <point x="165" y="133" type="curve" smooth="yes"/>
      <point x="165" y="148"/>
      <point x="154" y="159"/>
      <point x="139" y="159" type="curve" smooth="yes"/>
      <point x="124" y="159"/>
      <point x="113" y="148"/>
      <point x="113" y="133" type="curve" smooth="yes"/>
      <point x="113" y="118"/>
      <point x="124" y="107"/>
    </contour>
    <contour>
      <point x="92" y="181" type="curve" smooth="yes"/>
      <point x="107" y="181"/>
      <point x="118" y="192"/>
      <point x="118" y="207" type="curve" smooth="yes"/>
      <point x="118" y="222"/>
      <point x="107" y="233"/>
      <point x="92" y="233" type="curve" smooth="yes"/>
      <point x="77" y="233"/>
      <point x="66" y="222"/>
      <point x="66" y="207" type="curve" smooth="yes"/>
      <point x="66" y="192"/>
      <point x="77" y="181"/>
    </contour>
    <contour>
      <point x="213" y="60" type="curve" smooth="yes"/>
      <point x="228" y="60"/>
      <point x="239" y="71"/>
      <point x="239" y="86" type="curve" smooth="yes"/>
      <point x="239" y="101"/>
      <point x="228" y="112"/>
      <point x="213" y="112" type="curve" smooth="yes"/>
      <point x="198" y="112"/>
      <point x="187" y="101"/>
      <point x="187" y="86" type="curve" smooth="yes"/>
      <point x="187" y="71"/>
      <point x="198" y="60"/>
    </contour>
    <contour>
      <point x="74" y="265" type="curve" smooth="yes"/>
      <point x="89" y="265"/>
      <point x="100" y="276"/>
      <point x="100" y="291" type="curve" smooth="yes"/>
      <point x="100" y="306"/>
      <point x="89" y="317"/>
      <point x="74" y="317" type="curve" smooth="yes"/>
      <point x="59" y="317"/>
      <point x="48" y="306"/>
      <point x="48" y="291" type="curve" smooth="yes"/>
      <point x="48" y="276"/>
      <point x="59" y="265"/>
    </contour>
    <contour>
      <point x="297" y="42" type="curve" smooth="yes"/>
      <point x="312" y="42"/>
      <point x="323" y="53"/>
      <point x="323" y="68" type="curve" smooth="yes"/>
      <point x="323" y="83"/>
      <point x="312" y="94"/>
      <point x="297" y="94" type="curve" smooth="yes"/>
      <point x="282" y="94"/>
      <point x="271" y="83"/>
      <point x="271" y="68" type="curve" smooth="yes"/>
      <point x="271" y="53"/>
      <point x="282" y="42"/>
    </contour>
    <contour>
      <point x="92" y="349" type="curve" smooth="yes"/>
      <point x="107" y="349"/>
      <point x="118" y="360"/>
      <point x="118" y="375" type="curve" smooth="yes"/>
      <point x="118" y="390"/>
      <point x="107" y="401"/>
      <point x="92" y="401" type="curve" smooth="yes"/>
      <point x="77" y="401"/>
      <point x="66" y="390"/>
      <point x="66" y="375" type="curve" smooth="yes"/>
      <point x="66" y="360"/>
      <point x="77" y="349"/>
    </contour>
    <contour>
      <point x="381" y="60" type="curve" smooth="yes"/>
      <point x="396" y="60"/>
      <point x="407" y="71"/>
      <point x="407" y="86" type="curve" smooth="yes"/>
      <point x="407" y="101"/>
      <point x="396" y="112"/>
      <point x="381" y="112" type="curve" smooth="yes"/>
      <point x="366" y="112"/>
      <point x="355" y="101"/>
      <point x="355" y="86" type="curve" smooth="yes"/>
      <point x="355" y="71"/>
      <point x="366" y="60"/>
    </contour>
    <contour>
      <point x="139" y="423" type="curve" smooth="yes"/>
      <point x="154" y="423"/>
      <point x="165" y="434"/>
      <point x="165" y="449" type="curve" smooth="yes"/>
      <point x="165" y="464"/>
      <point x="154" y="475"/>
      <point x="139" y="475" type="curve" smooth="yes"/>
      <point x="124" y="475"/>
      <point x="113" y="464"/>
      <point x="113" y="449" type="curve" smooth="yes"/>
      <point x="113" y="434"/>
      <point x="124" y="423"/>
    </contour>
    <contour>
      <point x="455" y="107" type="curve" smooth="yes"/>
      <point x="470" y="107"/>
      <point x="481" y="118"/>
      <point x="481" y="133" type="curve" smooth="yes"/>
      <point x="481" y="148"/>
      <point x="470" y="159"/>
      <point x="455" y="159" type="curve" smooth="yes"/>
      <point x="440" y="159"/>
      <point x="429" y="148"/>
      <point x="429" y="133" type="curve" smooth="yes"/>
      <point x="429" y="118"/>
      <point x="440" y="107"/>
    </contour>
    <contour>
      <point x="213" y="470" type="curve" smooth="yes"/>
      <point x="228" y="470"/>
      <point x="239" y="481"/>
      <point x="239" y="496" type="curve" smooth="yes"/>
      <point x="239" y="511"/>
      <point x="228" y="522"/>
      <point x="213" y="522" type="curve" smooth="yes"/>
      <point x="198" y="522"/>
      <point x="187" y="511"/>
      <point x="187" y="496" type="curve" smooth="yes"/>
      <point x="187" y="481"/>
      <point x="198" y="470"/>
    </contour>
    <contour>
      <point x="502" y="181" type="curve" smooth="yes"/>
      <point x="517" y="181"/>
      <point x="528" y="192"/>
      <point x="528" y="207" type="curve" smooth="yes"/>
      <point x="528" y="222"/>
      <point x="517" y="233"/>
      <point x="502" y="233" type="curve" smooth="yes"/>
      <point x="487" y="233"/>
      <point x="476" y="222"/>
      <point x="476" y="207" type="curve" smooth="yes"/>
      <point x="476" y="192"/>
      <point x="487" y="181"/>
    </contour>
    <contour>
      <point x="297" y="488" type="curve" smooth="yes"/>
      <point x="312" y="488"/>
      <point x="323" y="499"/>
      <point x="323" y="514" type="curve" smooth="yes"/>
      <point x="323" y="529"/>
      <point x="312" y="540"/>
      <point x="297" y="540" type="curve" smooth="yes"/>
      <point x="282" y="540"/>
      <point x="271" y="529"/>
      <point x="271" y="514" type="curve" smooth="yes"/>
      <point x="271" y="499"/>
      <point x="282" y="488"/>
    </contour>
    <contour>
      <point x="520" y="265" type="curve" smooth="yes"/>
      <point x="535" y="265"/>
      <point x="546" y="276"/>
      <point x="546" y="291" type="curve" smooth="yes"/>
      <point x="546" y="306"/>
      <point x="535" y="317"/>
      <point x="520" y="317" type="curve" smooth="yes"/>
      <point x="505" y="317"/>
      <point x="494" y="306"/>
      <point x="494" y="291" type="curve" smooth="yes"/>
      <point x="494" y="276"/>
      <point x="505" y="265"/>
    </contour>
    <contour>
      <point x="381" y="470" type="curve" smooth="yes"/>
      <point x="396" y="470"/>
      <point x="407" y="481"/>
      <point x="407" y="496" type="curve" smooth="yes"/>
      <point x="407" y="511"/>
      <point x="396" y="522"/>
      <point x="381" y="522" type="curve" smooth="yes"/>
      <point x="366" y="522"/>
      <point x="355" y="511"/>
      <point x="355" y="496" type="curve" smooth="yes"/>
      <point x="355" y="481"/>
      <point x="366" y="470"/>
    </contour>
    <contour>
      <point x="502" y="349" type="curve" smooth="yes"/>
      <point x="517" y="349"/>
      <point x="528" y="360"/>
      <point x="528" y="375" type="curve" smooth="yes"/>
      <point x="528" y="390"/>
      <point x="517" y="401"/>
      <point x="502" y="401" type="curve" smooth="yes"/>
      <point x="487" y="401"/>
      <point x="476" y="390"/>
      <point x="476" y="375" type="curve" smooth="yes"/>
      <point x="476" y="360"/>
      <point x="487" y="349"/>
    </contour>
  </outline>
</glyph>
<glyph name="uniA836" format="2">
  <advance width="460"/>
  <unicode hex="A836"/>
  <outline>
    <contour>
      <point x="230" y="167" type="curve" smooth="yes"/>
      <point x="330" y="167"/>
      <point x="393" y="236"/>
      <point x="393" y="321" type="curve" smooth="yes"/>
      <point x="393" y="407"/>
      <point x="329" y="473"/>
      <point x="230" y="473" type="curve" smooth="yes"/>
      <point x="132" y="473"/>
      <point x="67" y="408"/>
      <point x="67" y="320" type="curve" smooth="yes"/>
      <point x="67" y="232"/>
      <point x="132" y="167"/>
    </contour>
    <contour>
      <point x="230" y="237" type="curve" smooth="yes"/>
      <point x="174" y="237"/>
      <point x="143" y="270"/>
      <point x="143" y="321" type="curve" smooth="yes"/>
      <point x="143" y="368"/>
      <point x="173" y="404"/>
      <point x="229" y="404" type="curve" smooth="yes"/>
      <point x="283" y="404"/>
      <point x="317" y="370"/>
      <point x="317" y="319" type="curve" smooth="yes"/>
      <point x="317" y="270"/>
      <point x="286" y="237"/>
    </contour>
  </outline>
</glyph>
<glyph name="uniA837" format="2">
  <advance width="509"/>
  <unicode hex="A837"/>
  <outline>
    <contour>
      <point x="221" y="86" type="curve" smooth="yes"/>
      <point x="320" y="86"/>
      <point x="383" y="147"/>
      <point x="383" y="241" type="curve" smooth="yes"/>
      <point x="383" y="329"/>
      <point x="318" y="391"/>
      <point x="222" y="391" type="curve"/>
      <point x="150" y="341" type="line"/>
      <point x="150" y="315" type="line"/>
      <point x="221" y="355"/>
      <point x="328" y="429"/>
      <point x="407" y="492" type="curve" smooth="yes"/>
      <point x="499" y="565" type="line"/>
      <point x="453" y="623" type="line"/>
      <point x="158" y="395" type="line" smooth="yes"/>
      <point x="115" y="362"/>
      <point x="57" y="316"/>
      <point x="57" y="236" type="curve" smooth="yes"/>
      <point x="57" y="147"/>
      <point x="124" y="86"/>
    </contour>
    <contour>
      <point x="219" y="156" type="curve" smooth="yes"/>
      <point x="164" y="156"/>
      <point x="133" y="189"/>
      <point x="133" y="238" type="curve" smooth="yes"/>
      <point x="133" y="287"/>
      <point x="164" y="323"/>
      <point x="219" y="323" type="curve" smooth="yes"/>
      <point x="273" y="323"/>
      <point x="307" y="288"/>
      <point x="307" y="238" type="curve" smooth="yes"/>
      <point x="307" y="191"/>
      <point x="276" y="156"/>
    </contour>
  </outline>
</glyph>
<glyph name="uniA838" format="2">
  <advance width="326"/>
  <unicode hex="A838"/>
  <outline>
    <contour>
      <point x="-53" y="-188" type="curve" smooth="yes"/>
      <point x="199" y="-188"/>
      <point x="246" y="-10"/>
      <point x="246" y="175" type="curve" smooth="yes"/>
      <point x="246" y="323"/>
      <point x="219" y="495"/>
      <point x="185" y="620" type="curve"/>
      <point x="104" y="602" type="line"/>
      <point x="134" y="492"/>
      <point x="164" y="335"/>
      <point x="164" y="182" type="curve" smooth="yes"/>
      <point x="164" y="-10"/>
      <point x="112" y="-115"/>
      <point x="-58" y="-115" type="curve" smooth="yes"/>
      <point x="-90" y="-115"/>
      <point x="-117" y="-111"/>
      <point x="-150" y="-104" type="curve"/>
      <point x="-157" y="-177" type="line"/>
      <point x="-132" y="-182"/>
      <point x="-96" y="-188"/>
    </contour>
  </outline>
</glyph>
<glyph name="uniA839" format="2">
  <advance width="337"/>
  <unicode hex="A839"/>
  <outline>
    <contour>
      <point x="-95" y="-240" type="curve" smooth="yes"/>
      <point x="197" y="-240"/>
      <point x="262" y="-84"/>
      <point x="262" y="35" type="curve" smooth="yes"/>
      <point x="262" y="110"/>
      <point x="230" y="184"/>
      <point x="197" y="259" type="curve" smooth="yes"/>
      <point x="169" y="322"/>
      <point x="151" y="364"/>
      <point x="151" y="406" type="curve" smooth="yes"/>
      <point x="151" y="486"/>
      <point x="214" y="524"/>
      <point x="333" y="547" type="curve"/>
      <point x="313" y="620" type="line"/>
      <point x="161" y="588"/>
      <point x="65" y="526"/>
      <point x="65" y="405" type="curve" smooth="yes"/>
      <point x="65" y="342"/>
      <point x="91" y="283"/>
      <point x="118" y="222" type="curve" smooth="yes"/>
      <point x="146" y="159"/>
      <point x="176" y="91"/>
      <point x="176" y="32" type="curve" smooth="yes"/>
      <point x="176" y="-73"/>
      <point x="113" y="-160"/>
      <point x="-101" y="-160" type="curve" smooth="yes"/>
      <point x="-113" y="-160"/>
      <point x="-137" y="-159"/>
      <point x="-150" y="-157" type="curve"/>
      <point x="-157" y="-237" type="line"/>
      <point x="-132" y="-239"/>
      <point x="-119" y="-240"/>
    </contour>
  </outline>
</glyph>
<glyph name="u112B0" format="2">
  <advance width="996"/>
  <unicode hex="112B0"/>
  <outline>
    <contour>
      <point x="904" y="-10" type="curve" smooth="yes"/>
      <point x="925" y="-10"/>
      <point x="947" y="-8"/>
      <point x="966" y="0" type="curve"/>
      <point x="976" y="75" type="line"/>
      <point x="956" y="68"/>
      <point x="934" y="65"/>
      <point x="923" y="65" type="curve" smooth="yes"/>
      <point x="869" y="65"/>
      <point x="847" y="92"/>
      <point x="847" y="151" type="curve" smooth="yes"/>
      <point x="847" y="176"/>
      <point x="850" y="220"/>
      <point x="855" y="268" type="curve" smooth="yes"/>
      <point x="861" y="326"/>
      <point x="867" y="386"/>
      <point x="867" y="437" type="curve" smooth="yes"/>
      <point x="867" y="552"/>
      <point x="836" y="620"/>
      <point x="738" y="620" type="curve" smooth="yes"/>
      <point x="625" y="620"/>
      <point x="565" y="514"/>
      <point x="535" y="341" type="curve"/>
      <point x="564" y="351" type="line"/>
      <point x="547" y="520"/>
      <point x="524" y="620"/>
      <point x="409" y="620" type="curve" smooth="yes"/>
      <point x="292" y="620"/>
      <point x="234" y="482"/>
      <point x="227" y="294" type="curve"/>
      <point x="237" y="313" type="line"/>
      <point x="208" y="423"/>
      <point x="156" y="544"/>
      <point x="82" y="620" type="curve"/>
      <point x="22" y="566" type="line"/>
      <point x="106" y="474"/>
      <point x="189" y="318"/>
      <point x="197" y="164" type="curve"/>
      <point x="177" y="0" type="line"/>
      <point x="262" y="0" type="line"/>
      <point x="301" y="316" type="line" smooth="yes"/>
      <point x="317" y="445"/>
      <point x="343" y="535"/>
      <point x="410" y="535" type="curve" smooth="yes"/>
      <point x="490" y="535"/>
      <point x="499" y="373"/>
      <point x="499" y="197" type="curve"/>
      <point x="477" y="0" type="line"/>
      <point x="562" y="0" type="line"/>
      <point x="585" y="226" type="line" smooth="yes"/>
      <point x="607" y="441"/>
      <point x="659" y="535"/>
      <point x="725" y="535" type="curve" smooth="yes"/>
      <point x="778" y="535"/>
      <point x="782" y="473"/>
      <point x="782" y="423" type="curve" smooth="yes"/>
      <point x="782" y="376"/>
      <point x="777" y="334"/>
      <point x="770" y="283" type="curve" smooth="yes"/>
      <point x="764" y="242"/>
      <point x="761" y="183"/>
      <point x="761" y="129" type="curve" smooth="yes"/>
      <point x="761" y="38"/>
      <point x="803" y="-10"/>
    </contour>
  </outline>
</glyph>
<glyph name="u112B2" format="2">
  <advance width="607"/>
  <unicode hex="112B2"/>
  <outline>
    <contour>
      <point x="255" y="-10" type="curve" smooth="yes"/>
      <point x="404" y="-10"/>
      <point x="460" y="102"/>
      <point x="460" y="199" type="curve" smooth="yes"/>
      <point x="460" y="324"/>
      <point x="369" y="417"/>
      <point x="240" y="428" type="curve"/>
      <point x="168" y="369" type="line"/>
      <point x="292" y="369"/>
      <point x="375" y="302"/>
      <point x="375" y="198" type="curve" smooth="yes"/>
      <point x="375" y="145"/>
      <point x="344" y="70"/>
      <point x="256" y="70" type="curve" smooth="yes"/>
      <point x="173" y="70"/>
      <point x="135" y="134"/>
      <point x="135" y="204" type="curve" smooth="yes"/>
      <point x="135" y="399"/>
      <point x="339" y="520"/>
      <point x="617" y="552" type="curve"/>
      <point x="601" y="620" type="line"/>
      <point x="408" y="613"/>
      <point x="50" y="484"/>
      <point x="50" y="206" type="curve" smooth="yes"/>
      <point x="50" y="108"/>
      <point x="98" y="-10"/>
    </contour>
  </outline>
</glyph>
<glyph name="u112B3" format="2">
  <advance width="967"/>
  <unicode hex="112B3"/>
  <outline>
    <contour>
      <point x="238" y="-10" type="curve" smooth="yes"/>
      <point x="357" y="-10"/>
      <point x="416" y="73"/>
      <point x="416" y="208" type="curve" smooth="yes"/>
      <point x="416" y="371"/>
      <point x="330" y="456"/>
      <point x="230" y="498" type="curve"/>
      <point x="167" y="436" type="line"/>
      <point x="280" y="401"/>
      <point x="331" y="315"/>
      <point x="331" y="201" type="curve" smooth="yes"/>
      <point x="331" y="145"/>
      <point x="319" y="70"/>
      <point x="240" y="70" type="curve" smooth="yes"/>
      <point x="179" y="70"/>
      <point x="135" y="114"/>
      <point x="135" y="216" type="curve" smooth="yes"/>
      <point x="135" y="392"/>
      <point x="264" y="500"/>
      <point x="448" y="500" type="curve" smooth="yes"/>
      <point x="627" y="500"/>
      <point x="759" y="399"/>
      <point x="759" y="217" type="curve" smooth="yes"/>
      <point x="759" y="112"/>
      <point x="715" y="70"/>
      <point x="657" y="70" type="curve" smooth="yes"/>
      <point x="570" y="70"/>
      <point x="563" y="164"/>
      <point x="563" y="205" type="curve" smooth="yes"/>
      <point x="563" y="403"/>
      <point x="751" y="509"/>
      <point x="967" y="552" type="curve"/>
      <point x="951" y="620" type="line"/>
      <point x="714" y="578"/>
      <point x="478" y="443"/>
      <point x="478" y="205" type="curve" smooth="yes"/>
      <point x="478" y="83"/>
      <point x="540" y="-10"/>
      <point x="656" y="-10" type="curve" smooth="yes"/>
      <point x="775" y="-10"/>
      <point x="844" y="87"/>
      <point x="844" y="224" type="curve" smooth="yes"/>
      <point x="844" y="440"/>
      <point x="674" y="580"/>
      <point x="453" y="580" type="curve" smooth="yes"/>
      <point x="240" y="580"/>
      <point x="50" y="449"/>
      <point x="50" y="215" type="curve" smooth="yes"/>
      <point x="50" y="74"/>
      <point x="119" y="-10"/>
    </contour>
  </outline>
</glyph>
<glyph name="u112B4" format="2">
  <advance width="648"/>
  <unicode hex="112B4"/>
  <outline>
    <contour>
      <point x="335" y="-10" type="curve" smooth="yes"/>
      <point x="508" y="-10"/>
      <point x="608" y="57"/>
      <point x="608" y="192" type="curve" smooth="yes"/>
      <point x="608" y="253"/>
      <point x="587" y="291"/>
      <point x="554" y="318" type="curve"/>
      <point x="585" y="345"/>
      <point x="604" y="383"/>
      <point x="604" y="438" type="curve" smooth="yes"/>
      <point x="604" y="557"/>
      <point x="517" y="610"/>
      <point x="406" y="610" type="curve" smooth="yes"/>
      <point x="267" y="610" type="line" smooth="yes"/>
      <point x="193" y="610"/>
      <point x="50" y="597"/>
      <point x="50" y="311" type="curve" smooth="yes"/>
      <point x="50" y="80"/>
      <point x="135" y="-10"/>
    </contour>
    <contour>
      <point x="336" y="70" type="curve" smooth="yes"/>
      <point x="213" y="70"/>
      <point x="135" y="107"/>
      <point x="135" y="315" type="curve" smooth="yes"/>
      <point x="135" y="524"/>
      <point x="222" y="535"/>
      <point x="290" y="535" type="curve" smooth="yes"/>
      <point x="399" y="535" type="line" smooth="yes"/>
      <point x="490" y="535"/>
      <point x="519" y="495"/>
      <point x="519" y="447" type="curve" smooth="yes"/>
      <point x="519" y="395"/>
      <point x="487" y="350"/>
      <point x="389" y="350" type="curve" smooth="yes"/>
      <point x="360" y="350"/>
      <point x="317" y="353"/>
      <point x="285" y="359" type="curve"/>
      <point x="274" y="280" type="line"/>
      <point x="322" y="272"/>
      <point x="364" y="270"/>
      <point x="394" y="270" type="curve" smooth="yes"/>
      <point x="424" y="270"/>
      <point x="452" y="272"/>
      <point x="471" y="277" type="curve"/>
      <point x="511" y="254"/>
      <point x="523" y="223"/>
      <point x="523" y="188" type="curve" smooth="yes"/>
      <point x="523" y="109"/>
      <point x="462" y="70"/>
    </contour>
  </outline>
</glyph>
<glyph name="u112B5" format="2">
  <advance width="648"/>
  <unicode hex="112B5"/>
  <outline>
    <contour>
      <point x="109" y="533" type="curve"/>
      <point x="209" y="601" type="line"/>
      <point x="233" y="705"/>
      <point x="286" y="743"/>
      <point x="369" y="743" type="curve" smooth="yes"/>
      <point x="429" y="743"/>
      <point x="470" y="721"/>
      <point x="470" y="672" type="curve" smooth="yes"/>
      <point x="470" y="651"/>
      <point x="463" y="631"/>
      <point x="452" y="600" type="curve"/>
      <point x="528" y="573" type="line"/>
      <point x="545" y="606"/>
      <point x="555" y="646"/>
      <point x="555" y="685" type="curve" smooth="yes"/>
      <point x="555" y="773"/>
      <point x="485" y="820"/>
      <point x="372" y="820" type="curve" smooth="yes"/>
      <point x="215" y="820"/>
      <point x="125" y="709"/>
    </contour>
    <component base="u112B4"/>
  </outline>
</glyph>
<glyph name="u112BA" format="2">
  <advance width="767"/>
  <unicode hex="112BA"/>
  <outline>
    <contour>
      <point x="675" y="-10" type="curve" smooth="yes"/>
      <point x="696" y="-10"/>
      <point x="718" y="-8"/>
      <point x="737" y="0" type="curve"/>
      <point x="747" y="75" type="line"/>
      <point x="727" y="68"/>
      <point x="705" y="65"/>
      <point x="694" y="65" type="curve" smooth="yes"/>
      <point x="640" y="65"/>
      <point x="618" y="92"/>
      <point x="618" y="151" type="curve" smooth="yes"/>
      <point x="618" y="176"/>
      <point x="621" y="220"/>
      <point x="626" y="268" type="curve" smooth="yes"/>
      <point x="632" y="326"/>
      <point x="638" y="386"/>
      <point x="638" y="437" type="curve" smooth="yes"/>
      <point x="638" y="552"/>
      <point x="605" y="620"/>
      <point x="499" y="620" type="curve" smooth="yes"/>
      <point x="380" y="620"/>
      <point x="317" y="514"/>
      <point x="286" y="341" type="curve"/>
      <point x="315" y="351" type="line"/>
      <point x="301" y="520"/>
      <point x="281" y="620"/>
      <point x="176" y="620" type="curve" smooth="yes"/>
      <point x="74" y="620"/>
      <point x="40" y="523"/>
      <point x="24" y="381" type="curve"/>
      <point x="98" y="366" type="line"/>
      <point x="110" y="469"/>
      <point x="125" y="535"/>
      <point x="170" y="535" type="curve" smooth="yes"/>
      <point x="245" y="535"/>
      <point x="250" y="373"/>
      <point x="250" y="197" type="curve"/>
      <point x="228" y="0" type="line"/>
      <point x="313" y="0" type="line"/>
      <point x="336" y="226" type="line" smooth="yes"/>
      <point x="358" y="441"/>
      <point x="415" y="535"/>
      <point x="486" y="535" type="curve" smooth="yes"/>
      <point x="548" y="535"/>
      <point x="553" y="473"/>
      <point x="553" y="423" type="curve" smooth="yes"/>
      <point x="553" y="382"/>
      <point x="547" y="325"/>
      <point x="541" y="273" type="curve" smooth="yes"/>
      <point x="535" y="225"/>
      <point x="532" y="183"/>
      <point x="532" y="129" type="curve" smooth="yes"/>
      <point x="532" y="38"/>
      <point x="574" y="-10"/>
    </contour>
  </outline>
</glyph>
<glyph name="u112BB" format="2">
  <advance width="596"/>
  <unicode hex="112BB"/>
  <outline>
    <contour>
      <point x="354" y="-10" type="curve" smooth="yes"/>
      <point x="487" y="-10"/>
      <point x="566" y="59"/>
      <point x="566" y="176" type="curve" smooth="yes"/>
      <point x="566" y="224"/>
      <point x="552" y="273"/>
      <point x="513" y="308" type="curve"/>
      <point x="550" y="340"/>
      <point x="566" y="384"/>
      <point x="566" y="431" type="curve" smooth="yes"/>
      <point x="566" y="561"/>
      <point x="445" y="610"/>
      <point x="317" y="620" type="curve"/>
      <point x="301" y="547" type="line"/>
      <point x="405" y="540"/>
      <point x="481" y="509"/>
      <point x="481" y="435" type="curve" smooth="yes"/>
      <point x="481" y="382"/>
      <point x="455" y="339"/>
      <point x="362" y="339" type="curve" smooth="yes"/>
      <point x="261" y="339" type="line" smooth="yes"/>
      <point x="168" y="339"/>
      <point x="105" y="368"/>
      <point x="105" y="448" type="curve" smooth="yes"/>
      <point x="105" y="492"/>
      <point x="124" y="535"/>
      <point x="156" y="586" type="curve"/>
      <point x="86" y="620" type="line"/>
      <point x="55" y="573"/>
      <point x="20" y="508"/>
      <point x="20" y="437" type="curve" smooth="yes"/>
      <point x="20" y="323"/>
      <point x="109" y="264"/>
      <point x="246" y="264" type="curve" smooth="yes"/>
      <point x="368" y="264" type="line" smooth="yes"/>
      <point x="388" y="264"/>
      <point x="410" y="265"/>
      <point x="426" y="268" type="curve"/>
      <point x="472" y="249"/>
      <point x="481" y="212"/>
      <point x="481" y="184" type="curve" smooth="yes"/>
      <point x="481" y="101"/>
      <point x="419" y="70"/>
      <point x="352" y="70" type="curve" smooth="yes"/>
      <point x="276" y="70"/>
      <point x="214" y="100"/>
      <point x="164" y="132" type="curve"/>
      <point x="120" y="63" type="line"/>
      <point x="189" y="12"/>
      <point x="266" y="-10"/>
    </contour>
  </outline>
</glyph>
<glyph name="u112BC" format="2">
  <advance width="688"/>
  <unicode hex="112BC"/>
  <outline>
    <contour>
      <point x="376" y="-10" type="line"/>
      <point x="523" y="-2"/>
      <point x="648" y="117"/>
      <point x="648" y="315" type="curve" smooth="yes"/>
      <point x="648" y="489"/>
      <point x="544" y="610"/>
      <point x="318" y="610" type="curve" smooth="yes"/>
      <point x="203" y="610" type="line" smooth="yes"/>
      <point x="119" y="610"/>
      <point x="77" y="620"/>
      <point x="49" y="632" type="curve"/>
      <point x="25" y="564" type="line"/>
      <point x="40" y="553"/>
      <point x="62" y="547"/>
      <point x="85" y="542" type="curve"/>
      <point x="85" y="186" type="line" smooth="yes"/>
      <point x="85" y="88"/>
      <point x="141" y="42"/>
      <point x="216" y="0" type="curve"/>
      <point x="254" y="71" type="line"/>
      <point x="198" y="102"/>
      <point x="169" y="140"/>
      <point x="169" y="210" type="curve" smooth="yes"/>
      <point x="169" y="535" type="line"/>
      <point x="300" y="535" type="line" smooth="yes"/>
      <point x="475" y="535"/>
      <point x="563" y="456"/>
      <point x="563" y="315" type="curve" smooth="yes"/>
      <point x="563" y="200"/>
      <point x="504" y="77"/>
      <point x="363" y="69" type="curve"/>
    </contour>
    <contour>
      <point x="309" y="176" type="line"/>
      <point x="575" y="423" type="line"/>
      <point x="530" y="485" type="line"/>
      <point x="256" y="233" type="line"/>
    </contour>
  </outline>
</glyph>
<glyph name="u112BD" format="2">
  <advance width="694"/>
  <unicode hex="112BD"/>
  <outline>
    <contour>
      <point x="211" y="-10" type="curve" smooth="yes"/>
      <point x="387" y="-10"/>
      <point x="389" y="163"/>
      <point x="389" y="246" type="curve" smooth="yes"/>
      <point x="389" y="610" type="line"/>
      <point x="307" y="620" type="line"/>
      <point x="307" y="272" type="line" smooth="yes"/>
      <point x="307" y="187"/>
      <point x="305" y="70"/>
      <point x="209" y="70" type="curve" smooth="yes"/>
      <point x="148" y="70"/>
      <point x="123" y="118"/>
      <point x="123" y="171" type="curve" smooth="yes"/>
      <point x="123" y="226"/>
      <point x="150" y="269"/>
      <point x="212" y="269" type="curve" smooth="yes"/>
      <point x="255" y="269"/>
      <point x="288" y="249"/>
      <point x="329" y="217" type="curve"/>
      <point x="329" y="304" type="line"/>
      <point x="296" y="329"/>
      <point x="258" y="347"/>
      <point x="206" y="347" type="curve" smooth="yes"/>
      <point x="99" y="347"/>
      <point x="40" y="270"/>
      <point x="40" y="167" type="curve" smooth="yes"/>
      <point x="40" y="71"/>
      <point x="92" y="-10"/>
    </contour>
    <component base="u112E0" xOffset="431"/>
  </outline>
</glyph>
<glyph name="u112BE" format="2">
  <advance width="629"/>
  <unicode hex="112BE"/>
  <outline>
    <contour>
      <point x="184" y="156" type="curve" smooth="yes"/>
      <point x="230" y="156"/>
      <point x="276" y="173"/>
      <point x="327" y="224" type="curve" smooth="yes"/>
      <point x="509" y="407" type="line"/>
      <point x="476" y="482" type="line"/>
      <point x="283" y="285" type="line" smooth="yes"/>
      <point x="250" y="251"/>
      <point x="226" y="228"/>
      <point x="188" y="228" type="curve" smooth="yes"/>
      <point x="147" y="228"/>
      <point x="130" y="253"/>
      <point x="130" y="283" type="curve" smooth="yes"/>
      <point x="130" y="316"/>
      <point x="153" y="336"/>
      <point x="187" y="336" type="curve" smooth="yes"/>
      <point x="224" y="336"/>
      <point x="259" y="311"/>
      <point x="259" y="248" type="curve"/>
      <point x="321" y="283" type="line"/>
      <point x="314" y="371"/>
      <point x="252" y="408"/>
      <point x="187" y="408" type="curve" smooth="yes"/>
      <point x="106" y="408"/>
      <point x="54" y="353"/>
      <point x="54" y="281" type="curve" smooth="yes"/>
      <point x="54" y="209"/>
      <point x="105" y="156"/>
    </contour>
    <contour>
      <point x="275" y="-10" type="curve" smooth="yes"/>
      <point x="455" y="-10"/>
      <point x="579" y="119"/>
      <point x="579" y="313" type="curve" smooth="yes"/>
      <point x="579" y="513"/>
      <point x="445" y="620"/>
      <point x="276" y="620" type="curve" smooth="yes"/>
      <point x="160" y="620"/>
      <point x="77" y="573"/>
      <point x="20" y="508" type="curve"/>
      <point x="76" y="451" type="line"/>
      <point x="132" y="513"/>
      <point x="197" y="541"/>
      <point x="275" y="541" type="curve" smooth="yes"/>
      <point x="411" y="541"/>
      <point x="495" y="452"/>
      <point x="495" y="312" type="curve" smooth="yes"/>
      <point x="495" y="165"/>
      <point x="405" y="69"/>
      <point x="272" y="69" type="curve" smooth="yes"/>
      <point x="247" y="69"/>
      <point x="219" y="71"/>
      <point x="192" y="77" type="curve"/>
      <point x="192" y="0" type="line"/>
      <point x="221" y="-7"/>
      <point x="247" y="-10"/>
    </contour>
  </outline>
</glyph>
<glyph name="u112C0" format="2">
  <advance width="578"/>
  <unicode hex="112C0"/>
  <outline>
    <contour>
      <point x="280" y="-10" type="curve" smooth="yes"/>
      <point x="380" y="-10"/>
      <point x="457" y="40"/>
      <point x="457" y="153" type="curve" smooth="yes"/>
      <point x="457" y="247"/>
      <point x="407" y="302"/>
      <point x="314" y="392" type="curve" smooth="yes"/>
      <point x="78" y="620" type="line"/>
      <point x="22" y="560" type="line"/>
      <point x="261" y="328" type="line" smooth="yes"/>
      <point x="343" y="249"/>
      <point x="372" y="213"/>
      <point x="372" y="152" type="curve" smooth="yes"/>
      <point x="372" y="92"/>
      <point x="331" y="70"/>
      <point x="284" y="70" type="curve" smooth="yes"/>
      <point x="230" y="70"/>
      <point x="192" y="99"/>
      <point x="192" y="155" type="curve" smooth="yes"/>
      <point x="192" y="209"/>
      <point x="223" y="245"/>
      <point x="318" y="336" type="curve" smooth="yes"/>
      <point x="556" y="562" type="line"/>
      <point x="501" y="620" type="line"/>
      <point x="259" y="390" type="line" smooth="yes"/>
      <point x="168" y="303"/>
      <point x="107" y="244"/>
      <point x="107" y="147" type="curve" smooth="yes"/>
      <point x="107" y="45"/>
      <point x="176" y="-10"/>
    </contour>
  </outline>
</glyph>
<glyph name="u112C1" format="2">
  <advance width="675"/>
  <unicode hex="112C1"/>
  <outline>
    <contour>
      <point x="322" y="0" type="curve" smooth="yes"/>
      <point x="455" y="0" type="line" smooth="yes"/>
      <point x="604" y="0"/>
      <point x="649" y="80"/>
      <point x="649" y="154" type="curve" smooth="yes"/>
      <point x="649" y="236"/>
      <point x="587" y="282"/>
      <point x="512" y="282" type="curve" smooth="yes"/>
      <point x="432" y="282"/>
      <point x="380" y="235"/>
      <point x="380" y="155" type="curve" smooth="yes"/>
      <point x="380" y="113"/>
      <point x="399" y="77"/>
      <point x="434" y="57" type="curve"/>
      <point x="520" y="66" type="line"/>
      <point x="497" y="77"/>
      <point x="460" y="99"/>
      <point x="460" y="148" type="curve" smooth="yes"/>
      <point x="460" y="185"/>
      <point x="479" y="210"/>
      <point x="516" y="210" type="curve" smooth="yes"/>
      <point x="554" y="210"/>
      <point x="570" y="180"/>
      <point x="570" y="150" type="curve" smooth="yes"/>
      <point x="570" y="109"/>
      <point x="543" y="75"/>
      <point x="466" y="75" type="curve" smooth="yes"/>
      <point x="317" y="75" type="line" smooth="yes"/>
      <point x="248" y="75"/>
      <point x="163" y="89"/>
      <point x="163" y="177" type="curve" smooth="yes"/>
      <point x="163" y="229"/>
      <point x="199" y="274"/>
      <point x="250" y="292" type="curve"/>
      <point x="171" y="327" type="line"/>
      <point x="117" y="291"/>
      <point x="78" y="234"/>
      <point x="78" y="165" type="curve" smooth="yes"/>
      <point x="78" y="19"/>
      <point x="219" y="0"/>
    </contour>
    <contour>
      <point x="298" y="283" type="curve" smooth="yes"/>
      <point x="328" y="283"/>
      <point x="350" y="285"/>
      <point x="384" y="289" type="curve"/>
      <point x="396" y="366" type="line"/>
      <point x="357" y="361"/>
      <point x="320" y="358"/>
      <point x="304" y="358" type="curve" smooth="yes"/>
      <point x="228" y="358"/>
      <point x="188" y="392"/>
      <point x="188" y="455" type="curve" smooth="yes"/>
      <point x="188" y="497"/>
      <point x="211" y="534"/>
      <point x="238" y="554" type="curve"/>
      <point x="150" y="554" type="line"/>
      <point x="120" y="528"/>
      <point x="103" y="477"/>
      <point x="103" y="439" type="curve" smooth="yes"/>
      <point x="103" y="336"/>
      <point x="193" y="283"/>
    </contour>
    <contour>
      <point x="40" y="535" type="line"/>
      <point x="412" y="535" type="line"/>
      <point x="427" y="610" type="line"/>
      <point x="55" y="610" type="line"/>
    </contour>
  </outline>
</glyph>
<glyph name="u112C2" format="2">
  <advance width="750"/>
  <unicode hex="112C2"/>
  <outline>
    <contour>
      <point x="226" y="-10" type="curve" smooth="yes"/>
      <point x="340" y="-10"/>
      <point x="389" y="72"/>
      <point x="389" y="162" type="curve" smooth="yes"/>
      <point x="389" y="271"/>
      <point x="307" y="364"/>
      <point x="145" y="364" type="curve"/>
      <point x="122" y="291" type="line"/>
      <point x="253" y="291"/>
      <point x="306" y="232"/>
      <point x="306" y="161" type="curve" smooth="yes"/>
      <point x="306" y="113"/>
      <point x="285" y="70"/>
      <point x="229" y="70" type="curve" smooth="yes"/>
      <point x="135" y="70"/>
      <point x="126" y="162"/>
      <point x="126" y="217" type="curve" smooth="yes"/>
      <point x="126" y="400"/>
      <point x="201" y="540"/>
      <point x="419" y="540" type="curve" smooth="yes"/>
      <point x="559" y="540"/>
      <point x="624" y="476"/>
      <point x="624" y="400" type="curve" smooth="yes"/>
      <point x="624" y="338"/>
      <point x="588" y="292"/>
      <point x="546" y="252" type="curve" smooth="yes"/>
      <point x="504" y="212"/>
      <point x="470" y="170"/>
      <point x="470" y="113" type="curve" smooth="yes"/>
      <point x="470" y="20"/>
      <point x="541" y="0"/>
      <point x="629" y="0" type="curve" smooth="yes"/>
      <point x="705" y="0" type="line"/>
      <point x="717" y="75" type="line"/>
      <point x="641" y="75" type="line" smooth="yes"/>
      <point x="590" y="75"/>
      <point x="556" y="78"/>
      <point x="556" y="119" type="curve" smooth="yes"/>
      <point x="556" y="153"/>
      <point x="582" y="181"/>
      <point x="615" y="214" type="curve" smooth="yes"/>
      <point x="660" y="259"/>
      <point x="710" y="310"/>
      <point x="710" y="405" type="curve" smooth="yes"/>
      <point x="710" y="533"/>
      <point x="596" y="620"/>
      <point x="421" y="620" type="curve" smooth="yes"/>
      <point x="156" y="620"/>
      <point x="41" y="431"/>
      <point x="41" y="220" type="curve" smooth="yes"/>
      <point x="41" y="121"/>
      <point x="71" y="-10"/>
    </contour>
  </outline>
</glyph>
<glyph name="u112C3" format="2">
  <advance width="1011"/>
  <unicode hex="112C3"/>
  <outline>
    <contour>
      <point x="764" y="-10" type="curve" smooth="yes"/>
      <point x="888" y="-10"/>
      <point x="940" y="78"/>
      <point x="940" y="169" type="curve" smooth="yes"/>
      <point x="940" y="251"/>
      <point x="898" y="362"/>
      <point x="744" y="362" type="curve" smooth="yes"/>
      <point x="594" y="362"/>
      <point x="466" y="271"/>
      <point x="395" y="111" type="curve"/>
      <point x="420" y="116" type="line"/>
      <point x="413" y="485" type="line"/>
      <point x="344" y="500" type="line"/>
      <point x="150" y="118" type="line"/>
      <point x="171" y="54" type="line"/>
      <point x="171" y="444" type="line" smooth="yes"/>
      <point x="171" y="546"/>
      <point x="141" y="609"/>
      <point x="29" y="620" type="curve"/>
      <point x="10" y="546" type="line"/>
      <point x="58" y="543"/>
      <point x="88" y="514"/>
      <point x="88" y="458" type="curve" smooth="yes"/>
      <point x="88" y="0" type="line"/>
      <point x="165" y="0" type="line"/>
      <point x="359" y="374" type="line"/>
      <point x="339" y="384" type="line"/>
      <point x="347" y="0" type="line"/>
      <point x="413" y="0" type="line"/>
      <point x="489" y="188"/>
      <point x="604" y="285"/>
      <point x="732" y="285" type="curve" smooth="yes"/>
      <point x="822" y="285"/>
      <point x="857" y="243"/>
      <point x="857" y="176" type="curve" smooth="yes"/>
      <point x="857" y="117"/>
      <point x="830" y="70"/>
      <point x="766" y="70" type="curve" smooth="yes"/>
      <point x="682" y="70"/>
      <point x="662" y="153"/>
      <point x="662" y="228" type="curve" smooth="yes"/>
      <point x="662" y="411"/>
      <point x="782" y="540"/>
      <point x="974" y="540" type="curve"/>
      <point x="991" y="620" type="line"/>
      <point x="746" y="620"/>
      <point x="579" y="455"/>
      <point x="579" y="220" type="curve" smooth="yes"/>
      <point x="579" y="81"/>
      <point x="638" y="-10"/>
    </contour>
  </outline>
</glyph>
<glyph name="u112C4" format="2">
  <advance width="805"/>
  <unicode hex="112C4"/>
  <outline>
    <contour>
      <point x="225" y="-10" type="curve" smooth="yes"/>
      <point x="339" y="-10"/>
      <point x="388" y="72"/>
      <point x="388" y="162" type="curve" smooth="yes"/>
      <point x="388" y="271"/>
      <point x="306" y="364"/>
      <point x="144" y="364" type="curve"/>
      <point x="121" y="291" type="line"/>
      <point x="252" y="291"/>
      <point x="305" y="232"/>
      <point x="305" y="161" type="curve" smooth="yes"/>
      <point x="305" y="113"/>
      <point x="284" y="70"/>
      <point x="228" y="70" type="curve" smooth="yes"/>
      <point x="134" y="70"/>
      <point x="125" y="162"/>
      <point x="125" y="217" type="curve" smooth="yes"/>
      <point x="125" y="400"/>
      <point x="199" y="540"/>
      <point x="417" y="540" type="curve" smooth="yes"/>
      <point x="560" y="540"/>
      <point x="624" y="477"/>
      <point x="624" y="412" type="curve" smooth="yes"/>
      <point x="624" y="365"/>
      <point x="587" y="331"/>
      <point x="541" y="292" type="curve" smooth="yes"/>
      <point x="490" y="248"/>
      <point x="443" y="204"/>
      <point x="443" y="133" type="curve" smooth="yes"/>
      <point x="443" y="66"/>
      <point x="482" y="-10"/>
      <point x="600" y="-10" type="curve" smooth="yes"/>
      <point x="709" y="-10"/>
      <point x="767" y="54"/>
      <point x="767" y="141" type="curve" smooth="yes"/>
      <point x="767" y="222"/>
      <point x="718" y="287"/>
      <point x="616" y="304" type="curve"/>
      <point x="545" y="239" type="line"/>
      <point x="648" y="237"/>
      <point x="682" y="195"/>
      <point x="682" y="143" type="curve" smooth="yes"/>
      <point x="682" y="93"/>
      <point x="647" y="70"/>
      <point x="601" y="70" type="curve" smooth="yes"/>
      <point x="551" y="70"/>
      <point x="528" y="98"/>
      <point x="528" y="137" type="curve" smooth="yes"/>
      <point x="528" y="186"/>
      <point x="564" y="216"/>
      <point x="617" y="259" type="curve" smooth="yes"/>
      <point x="647" y="283"/>
      <point x="710" y="334"/>
      <point x="710" y="419" type="curve" smooth="yes"/>
      <point x="710" y="534"/>
      <point x="596" y="620"/>
      <point x="419" y="620" type="curve" smooth="yes"/>
      <point x="154" y="620"/>
      <point x="40" y="431"/>
      <point x="40" y="220" type="curve" smooth="yes"/>
      <point x="40" y="121"/>
      <point x="70" y="-10"/>
    </contour>
  </outline>
</glyph>
<glyph name="u112C6" format="2">
  <advance width="550"/>
  <unicode hex="112C6"/>
  <outline>
    <contour>
      <point x="336" y="0" type="curve" smooth="yes"/>
      <point x="507" y="0" type="line"/>
      <point x="520" y="75" type="line"/>
      <point x="344" y="75" type="line" smooth="yes"/>
      <point x="244" y="75"/>
      <point x="135" y="120"/>
      <point x="135" y="276" type="curve" smooth="yes"/>
      <point x="135" y="435"/>
      <point x="269" y="522"/>
      <point x="406" y="535" type="curve"/>
      <point x="480" y="535" type="line"/>
      <point x="495" y="610" type="line"/>
      <point x="93" y="610" type="line"/>
      <point x="78" y="535" type="line"/>
      <point x="233" y="535" type="line"/>
      <point x="116" y="484"/>
      <point x="50" y="389"/>
      <point x="50" y="276" type="curve" smooth="yes"/>
      <point x="50" y="87"/>
      <point x="171" y="0"/>
    </contour>
  </outline>
</glyph>
<glyph name="u112C7" format="2">
  <advance width="640"/>
  <unicode hex="112C7"/>
  <outline>
    <contour>
      <point x="376" y="0" type="curve" smooth="yes"/>
      <point x="557" y="0" type="line"/>
      <point x="570" y="75" type="line"/>
      <point x="396" y="75" type="line" smooth="yes"/>
      <point x="202" y="75"/>
      <point x="135" y="178"/>
      <point x="135" y="295" type="curve" smooth="yes"/>
      <point x="135" y="431"/>
      <point x="227" y="540"/>
      <point x="382" y="540" type="curve" smooth="yes"/>
      <point x="452" y="540"/>
      <point x="515" y="518"/>
      <point x="515" y="466" type="curve" smooth="yes"/>
      <point x="515" y="414"/>
      <point x="467" y="399"/>
      <point x="371" y="399" type="curve" smooth="yes"/>
      <point x="309" y="399"/>
      <point x="223" y="407"/>
      <point x="150" y="457" type="curve"/>
      <point x="121" y="389" type="line"/>
      <point x="192" y="340"/>
      <point x="309" y="324"/>
      <point x="376" y="324" type="curve" smooth="yes"/>
      <point x="487" y="324"/>
      <point x="600" y="354"/>
      <point x="600" y="466" type="curve" smooth="yes"/>
      <point x="600" y="569"/>
      <point x="503" y="620"/>
      <point x="382" y="620" type="curve" smooth="yes"/>
      <point x="178" y="620"/>
      <point x="50" y="475"/>
      <point x="50" y="287" type="curve" smooth="yes"/>
      <point x="50" y="93"/>
      <point x="185" y="0"/>
    </contour>
  </outline>
</glyph>
<glyph name="u112C8" format="2">
  <advance width="647"/>
  <unicode hex="112C8"/>
  <outline>
    <contour>
      <point x="173" y="278" type="line"/>
      <point x="500" y="498" type="line"/>
      <point x="440" y="542" type="line"/>
      <point x="135" y="341" type="line"/>
    </contour>
    <contour>
      <point x="249" y="152" type="line"/>
      <point x="555" y="352" type="line"/>
      <point x="542" y="429" type="line"/>
      <point x="211" y="215" type="line"/>
    </contour>
    <contour>
      <point x="293" y="-10" type="curve" smooth="yes"/>
      <point x="473" y="-10"/>
      <point x="597" y="119"/>
      <point x="597" y="313" type="curve" smooth="yes"/>
      <point x="597" y="513"/>
      <point x="463" y="620"/>
      <point x="294" y="620" type="curve" smooth="yes"/>
      <point x="178" y="620"/>
      <point x="95" y="573"/>
      <point x="38" y="508" type="curve"/>
      <point x="94" y="451" type="line"/>
      <point x="150" y="513"/>
      <point x="215" y="541"/>
      <point x="293" y="541" type="curve" smooth="yes"/>
      <point x="429" y="541"/>
      <point x="513" y="452"/>
      <point x="513" y="312" type="curve" smooth="yes"/>
      <point x="513" y="165"/>
      <point x="423" y="69"/>
      <point x="290" y="69" type="curve" smooth="yes"/>
      <point x="265" y="69"/>
      <point x="237" y="71"/>
      <point x="210" y="77" type="curve"/>
      <point x="210" y="0" type="line"/>
      <point x="239" y="-7"/>
      <point x="265" y="-10"/>
    </contour>
  </outline>
</glyph>
<glyph name="u112C9" format="2">
  <advance width="468"/>
  <unicode hex="112C9"/>
  <outline>
    <contour>
      <point x="41" y="0" type="line"/>
      <point x="433" y="0" type="line"/>
      <point x="448" y="75" type="line"/>
      <point x="135" y="75" type="line"/>
      <point x="287" y="293" type="line"/>
      <point x="287" y="313" type="line"/>
      <point x="133" y="535" type="line"/>
      <point x="428" y="535" type="line"/>
      <point x="443" y="610" type="line"/>
      <point x="40" y="610" type="line"/>
      <point x="30" y="548" type="line"/>
      <point x="201" y="302" type="line"/>
      <point x="31" y="66" type="line"/>
    </contour>
  </outline>
</glyph>
<glyph name="u112CA" format="2">
  <advance width="519"/>
  <unicode hex="112CA"/>
  <outline>
    <contour>
      <point x="240" y="-10" type="curve" smooth="yes"/>
      <point x="384" y="-10"/>
      <point x="469" y="54"/>
      <point x="469" y="183" type="curve" smooth="yes"/>
      <point x="469" y="248"/>
      <point x="447" y="285"/>
      <point x="404" y="316" type="curve"/>
      <point x="437" y="343"/>
      <point x="459" y="381"/>
      <point x="459" y="443" type="curve" smooth="yes"/>
      <point x="459" y="575"/>
      <point x="360" y="610"/>
      <point x="246" y="610" type="curve" smooth="yes"/>
      <point x="106" y="610" type="line"/>
      <point x="91" y="535" type="line"/>
      <point x="245" y="535" type="line" smooth="yes"/>
      <point x="324" y="535"/>
      <point x="374" y="511"/>
      <point x="374" y="445" type="curve" smooth="yes"/>
      <point x="374" y="398"/>
      <point x="348" y="353"/>
      <point x="244" y="353" type="curve" smooth="yes"/>
      <point x="218" y="353"/>
      <point x="164" y="356"/>
      <point x="140" y="362" type="curve"/>
      <point x="129" y="283" type="line"/>
      <point x="177" y="275"/>
      <point x="219" y="273"/>
      <point x="257" y="273" type="curve" smooth="yes"/>
      <point x="283" y="273"/>
      <point x="295" y="274"/>
      <point x="308" y="276" type="curve"/>
      <point x="361" y="260"/>
      <point x="384" y="229"/>
      <point x="384" y="181" type="curve" smooth="yes"/>
      <point x="384" y="93"/>
      <point x="309" y="70"/>
      <point x="236" y="70" type="curve" smooth="yes"/>
      <point x="182" y="70"/>
      <point x="109" y="86"/>
      <point x="70" y="110" type="curve"/>
      <point x="40" y="37" type="line"/>
      <point x="95" y="11"/>
      <point x="165" y="-10"/>
    </contour>
  </outline>
</glyph>
<glyph name="u112CB" format="2">
  <advance width="747"/>
  <unicode hex="112CB"/>
  <outline>
    <contour>
      <point x="368" y="-10" type="curve" smooth="yes"/>
      <point x="565" y="-10"/>
      <point x="717" y="79"/>
      <point x="717" y="269" type="curve" smooth="yes"/>
      <point x="717" y="377"/>
      <point x="663" y="440"/>
      <point x="562" y="440" type="curve" smooth="yes"/>
      <point x="465" y="440"/>
      <point x="407" y="376"/>
      <point x="407" y="291" type="curve" smooth="yes"/>
      <point x="407" y="205"/>
      <point x="464" y="146"/>
      <point x="550" y="146" type="curve" smooth="yes"/>
      <point x="591" y="146"/>
      <point x="620" y="156"/>
      <point x="641" y="166" type="curve"/>
      <point x="654" y="239" type="line"/>
      <point x="627" y="220"/>
      <point x="610" y="211"/>
      <point x="579" y="211" type="curve" smooth="yes"/>
      <point x="526" y="211"/>
      <point x="493" y="239"/>
      <point x="493" y="288" type="curve" smooth="yes"/>
      <point x="493" y="333"/>
      <point x="520" y="362"/>
      <point x="563" y="362" type="curve" smooth="yes"/>
      <point x="610" y="362"/>
      <point x="636" y="327"/>
      <point x="636" y="262" type="curve" smooth="yes"/>
      <point x="636" y="104"/>
      <point x="498" y="65"/>
      <point x="377" y="65" type="curve" smooth="yes"/>
      <point x="220" y="65"/>
      <point x="135" y="143"/>
      <point x="135" y="275" type="curve" smooth="yes"/>
      <point x="135" y="430"/>
      <point x="258" y="519"/>
      <point x="406" y="535" type="curve"/>
      <point x="480" y="535" type="line"/>
      <point x="495" y="610" type="line"/>
      <point x="93" y="610" type="line"/>
      <point x="78" y="535" type="line"/>
      <point x="235" y="535" type="line"/>
      <point x="114" y="479"/>
      <point x="50" y="397"/>
      <point x="50" y="272" type="curve" smooth="yes"/>
      <point x="50" y="102"/>
      <point x="161" y="-10"/>
    </contour>
  </outline>
</glyph>
<glyph name="u112CC" format="2">
  <advance width="727"/>
  <unicode hex="112CC"/>
  <outline>
    <contour>
      <point x="518" y="-249" type="curve"/>
      <point x="530" y="-178" type="line"/>
      <point x="395" y="-129"/>
      <point x="265" y="-61"/>
      <point x="170" y="24" type="curve"/>
      <point x="170" y="610" type="line"/>
      <point x="85" y="620" type="line"/>
      <point x="85" y="-4" type="line"/>
      <point x="196" y="-106"/>
      <point x="354" y="-197"/>
    </contour>
    <contour>
      <point x="318" y="0" type="line"/>
      <point x="403" y="0" type="line"/>
      <point x="403" y="610" type="line"/>
      <point x="318" y="620" type="line"/>
    </contour>
    <contour>
      <point x="548" y="0" type="line"/>
      <point x="633" y="0" type="line"/>
      <point x="633" y="610" type="line"/>
      <point x="548" y="620" type="line"/>
    </contour>
  </outline>
</glyph>
<glyph name="u112CD" format="2">
  <advance width="654"/>
  <unicode hex="112CD"/>
  <outline>
    <contour>
      <point x="271" y="-10" type="curve" smooth="yes"/>
      <point x="448" y="-10"/>
      <point x="604" y="87"/>
      <point x="604" y="296" type="curve" smooth="yes"/>
      <point x="604" y="468"/>
      <point x="489" y="620"/>
      <point x="280" y="620" type="curve" smooth="yes"/>
      <point x="162" y="620"/>
      <point x="64" y="572"/>
      <point x="64" y="466" type="curve" smooth="yes"/>
      <point x="64" y="353"/>
      <point x="175" y="316"/>
      <point x="258" y="316" type="curve" smooth="yes"/>
      <point x="375" y="316"/>
      <point x="461" y="374"/>
      <point x="500" y="440" type="curve"/>
      <point x="465" y="503" type="line"/>
      <point x="404" y="432"/>
      <point x="341" y="396"/>
      <point x="255" y="396" type="curve" smooth="yes"/>
      <point x="192" y="396"/>
      <point x="149" y="425"/>
      <point x="149" y="469" type="curve" smooth="yes"/>
      <point x="149" y="523"/>
      <point x="214" y="540"/>
      <point x="279" y="540" type="curve" smooth="yes"/>
      <point x="444" y="540"/>
      <point x="519" y="416"/>
      <point x="519" y="299" type="curve" smooth="yes"/>
      <point x="519" y="177"/>
      <point x="438" y="70"/>
      <point x="274" y="70" type="curve" smooth="yes"/>
      <point x="191" y="70"/>
      <point x="130" y="100"/>
      <point x="80" y="144" type="curve"/>
      <point x="30" y="87" type="line"/>
      <point x="92" y="21"/>
      <point x="176" y="-10"/>
    </contour>
  </outline>
</glyph>
<glyph name="u112CE" format="2">
  <advance width="842"/>
  <unicode hex="112CE"/>
  <outline>
    <contour>
      <point x="800" y="-10" type="curve"/>
      <point x="822" y="65" type="line"/>
      <point x="748" y="97"/>
      <point x="739" y="111"/>
      <point x="739" y="160" type="curve" smooth="yes"/>
      <point x="739" y="594" type="line"/>
      <point x="666" y="620" type="line"/>
      <point x="449" y="227" type="line"/>
      <point x="434" y="594" type="line"/>
      <point x="362" y="620" type="line"/>
      <point x="168" y="277" type="line"/>
      <point x="168" y="594" type="line"/>
      <point x="85" y="620" type="line"/>
      <point x="85" y="150" type="line"/>
      <point x="174" y="140" type="line"/>
      <point x="362" y="474" type="line"/>
      <point x="375" y="95" type="line"/>
      <point x="460" y="85" type="line"/>
      <point x="655" y="456" type="line"/>
      <point x="655" y="140" type="line" smooth="yes"/>
      <point x="655" y="78"/>
      <point x="676" y="25"/>
    </contour>
  </outline>
</glyph>
<glyph name="u112CF" format="2">
  <advance width="767"/>
  <unicode hex="112CF"/>
  <outline>
    <contour>
      <point x="443" y="79" type="curve"/>
      <point x="571" y="86" type="line"/>
      <point x="629" y="142"/>
      <point x="677" y="236"/>
      <point x="677" y="343" type="curve" smooth="yes"/>
      <point x="677" y="521"/>
      <point x="546" y="620"/>
      <point x="377" y="620" type="curve" smooth="yes"/>
      <point x="207" y="620"/>
      <point x="40" y="513"/>
      <point x="40" y="317" type="curve" smooth="yes"/>
      <point x="40" y="210"/>
      <point x="99" y="150"/>
      <point x="191" y="150" type="curve" smooth="yes"/>
      <point x="292" y="150"/>
      <point x="347" y="216"/>
      <point x="347" y="301" type="curve" smooth="yes"/>
      <point x="347" y="387"/>
      <point x="300" y="450"/>
      <point x="213" y="450" type="curve" smooth="yes"/>
      <point x="162" y="450"/>
      <point x="131" y="433"/>
      <point x="111" y="413" type="curve"/>
      <point x="102" y="350" type="line"/>
      <point x="120" y="365"/>
      <point x="155" y="380"/>
      <point x="187" y="380" type="curve" smooth="yes"/>
      <point x="229" y="380"/>
      <point x="264" y="355"/>
      <point x="264" y="304" type="curve" smooth="yes"/>
      <point x="264" y="257"/>
      <point x="239" y="230"/>
      <point x="196" y="230" type="curve" smooth="yes"/>
      <point x="149" y="230"/>
      <point x="125" y="256"/>
      <point x="125" y="319" type="curve" smooth="yes"/>
      <point x="125" y="449"/>
      <point x="228" y="545"/>
      <point x="372" y="545" type="curve" smooth="yes"/>
      <point x="498" y="545"/>
      <point x="592" y="476"/>
      <point x="592" y="341" type="curve" smooth="yes"/>
      <point x="592" y="223"/>
      <point x="520" y="108"/>
    </contour>
    <contour>
      <point x="750" y="-26" type="curve"/>
      <point x="777" y="50" type="line"/>
      <point x="728" y="78"/>
      <point x="639" y="97"/>
      <point x="541" y="97" type="curve" smooth="yes"/>
      <point x="459" y="97"/>
      <point x="405" y="84"/>
      <point x="363" y="67" type="curve"/>
      <point x="390" y="-10" type="line"/>
      <point x="443" y="6"/>
      <point x="486" y="14"/>
      <point x="545" y="14" type="curve" smooth="yes"/>
      <point x="632" y="14"/>
      <point x="700" y="-2"/>
    </contour>
  </outline>
</glyph>
<glyph name="u112D0" format="2">
  <advance width="702"/>
  <unicode hex="112D0"/>
  <outline>
    <contour>
      <point x="600" y="-10" type="curve" smooth="yes"/>
      <point x="623" y="-10"/>
      <point x="646" y="-7"/>
      <point x="670" y="-1" type="curve"/>
      <point x="682" y="76" type="line"/>
      <point x="671" y="74"/>
      <point x="633" y="70"/>
      <point x="613" y="70" type="curve" smooth="yes"/>
      <point x="546" y="70"/>
      <point x="504" y="119"/>
      <point x="464" y="170" type="curve" smooth="yes"/>
      <point x="397" y="256"/>
      <point x="338" y="331"/>
      <point x="233" y="331" type="curve" smooth="yes"/>
      <point x="153" y="331"/>
      <point x="65" y="287"/>
      <point x="65" y="178" type="curve" smooth="yes"/>
      <point x="65" y="86"/>
      <point x="128" y="25"/>
      <point x="246" y="25" type="curve" smooth="yes"/>
      <point x="402" y="25"/>
      <point x="580" y="133"/>
      <point x="580" y="348" type="curve" smooth="yes"/>
      <point x="580" y="538"/>
      <point x="441" y="620"/>
      <point x="280" y="620" type="curve" smooth="yes"/>
      <point x="199" y="620"/>
      <point x="109" y="599"/>
      <point x="30" y="552" type="curve"/>
      <point x="66" y="486" type="line"/>
      <point x="130" y="522"/>
      <point x="204" y="540"/>
      <point x="279" y="540" type="curve" smooth="yes"/>
      <point x="435" y="540"/>
      <point x="495" y="452"/>
      <point x="495" y="348" type="curve" smooth="yes"/>
      <point x="495" y="176"/>
      <point x="348" y="105"/>
      <point x="248" y="105" type="curve" smooth="yes"/>
      <point x="176" y="105"/>
      <point x="150" y="138"/>
      <point x="150" y="179" type="curve" smooth="yes"/>
      <point x="150" y="225"/>
      <point x="183" y="251"/>
      <point x="230" y="251" type="curve" smooth="yes"/>
      <point x="293" y="251"/>
      <point x="329" y="203"/>
      <point x="373" y="145" type="curve" smooth="yes"/>
      <point x="456" y="37"/>
      <point x="504" y="-10"/>
    </contour>
  </outline>
</glyph>
<glyph name="u112D1" format="2">
  <advance width="776"/>
  <unicode hex="112D1"/>
  <outline>
    <contour>
      <point x="240" y="-10" type="line"/>
      <point x="438" y="132"/>
      <point x="623" y="297"/>
      <point x="765" y="574" type="curve"/>
      <point x="691" y="615" type="line"/>
      <point x="591" y="405"/>
      <point x="415" y="210"/>
      <point x="231" y="79" type="curve"/>
      <point x="185" y="164"/>
      <point x="119" y="369"/>
      <point x="93" y="497" type="curve"/>
      <point x="10" y="480" type="line"/>
      <point x="27" y="379"/>
      <point x="108" y="123"/>
      <point x="169" y="9" type="curve"/>
    </contour>
  </outline>
</glyph>
<glyph name="u112D2" format="2">
  <advance width="576"/>
  <unicode hex="112D2"/>
  <outline>
    <contour>
      <point x="504" y="-10" type="curve" smooth="yes"/>
      <point x="521" y="-10"/>
      <point x="533" y="-8"/>
      <point x="548" y="-4" type="curve"/>
      <point x="556" y="74" type="line"/>
      <point x="546" y="71"/>
      <point x="534" y="70"/>
      <point x="526" y="70" type="curve" smooth="yes"/>
      <point x="484" y="70"/>
      <point x="479" y="96"/>
      <point x="479" y="135" type="curve" smooth="yes"/>
      <point x="479" y="608" type="line"/>
      <point x="412" y="620" type="line"/>
      <point x="369" y="584"/>
      <point x="276" y="577"/>
      <point x="229" y="577" type="curve" smooth="yes"/>
      <point x="161" y="577"/>
      <point x="103" y="594"/>
      <point x="46" y="620" type="curve"/>
      <point x="10" y="549" type="line"/>
      <point x="81" y="514"/>
      <point x="142" y="497"/>
      <point x="229" y="497" type="curve" smooth="yes"/>
      <point x="279" y="497"/>
      <point x="341" y="502"/>
      <point x="395" y="527" type="curve"/>
      <point x="395" y="124" type="line" smooth="yes"/>
      <point x="395" y="51"/>
      <point x="410" y="-10"/>
    </contour>
  </outline>
</glyph>
<glyph name="u112D3" format="2">
  <advance width="693"/>
  <unicode hex="112D3"/>
  <outline>
    <contour>
      <point x="371" y="-10" type="line"/>
      <point x="518" y="-2"/>
      <point x="643" y="117"/>
      <point x="643" y="304" type="curve" smooth="yes"/>
      <point x="643" y="489"/>
      <point x="515" y="610"/>
      <point x="309" y="610" type="curve" smooth="yes"/>
      <point x="198" y="610" type="line" smooth="yes"/>
      <point x="114" y="610"/>
      <point x="72" y="620"/>
      <point x="44" y="632" type="curve"/>
      <point x="20" y="564" type="line"/>
      <point x="65" y="539"/>
      <point x="120" y="535"/>
      <point x="192" y="535" type="curve" smooth="yes"/>
      <point x="298" y="535" type="line" smooth="yes"/>
      <point x="462" y="535"/>
      <point x="558" y="447"/>
      <point x="558" y="307" type="curve" smooth="yes"/>
      <point x="558" y="200"/>
      <point x="501" y="78"/>
      <point x="358" y="69" type="curve"/>
    </contour>
    <contour>
      <point x="135" y="64" type="line"/>
      <point x="563" y="460" type="line"/>
      <point x="510" y="519" type="line"/>
      <point x="83" y="124" type="line"/>
    </contour>
  </outline>
</glyph>
<glyph name="u112D4" format="2">
  <advance width="879"/>
  <unicode hex="112D4"/>
  <outline>
    <contour>
      <point x="167" y="0" type="line"/>
      <point x="227" y="0" type="line"/>
      <point x="421" y="404" type="line"/>
      <point x="475" y="0" type="line"/>
      <point x="535" y="0" type="line"/>
      <point x="742" y="380" type="line" smooth="yes"/>
      <point x="789" y="466"/>
      <point x="815" y="505"/>
      <point x="879" y="545" type="curve"/>
      <point x="856" y="620" type="line"/>
      <point x="775" y="595"/>
      <point x="729" y="526"/>
      <point x="685" y="442" type="curve" smooth="yes"/>
      <point x="529" y="146" type="line"/>
      <point x="482" y="531" type="line"/>
      <point x="413" y="551" type="line"/>
      <point x="218" y="143" type="line"/>
      <point x="171" y="389" type="line" smooth="yes"/>
      <point x="152" y="487"/>
      <point x="128" y="575"/>
      <point x="78" y="620" type="curve"/>
      <point x="20" y="567" type="line"/>
      <point x="52" y="535"/>
      <point x="75" y="477"/>
      <point x="96" y="367" type="curve" smooth="yes"/>
    </contour>
  </outline>
</glyph>
<glyph name="u112D5" format="2">
  <advance width="656"/>
  <unicode hex="112D5"/>
  <outline>
    <contour>
      <point x="378" y="-10" type="curve" smooth="yes"/>
      <point x="523" y="-10"/>
      <point x="606" y="72"/>
      <point x="606" y="184" type="curve" smooth="yes"/>
      <point x="606" y="258"/>
      <point x="573" y="326"/>
      <point x="489" y="352" type="curve" smooth="yes"/>
      <point x="413" y="376"/>
      <point x="361" y="403"/>
      <point x="361" y="465" type="curve" smooth="yes"/>
      <point x="361" y="512"/>
      <point x="391" y="540"/>
      <point x="431" y="540" type="curve" smooth="yes"/>
      <point x="479" y="540"/>
      <point x="501" y="506"/>
      <point x="501" y="461" type="curve" smooth="yes"/>
      <point x="501" y="419"/>
      <point x="471" y="359"/>
      <point x="382" y="359" type="curve" smooth="yes"/>
      <point x="281" y="359" type="line" smooth="yes"/>
      <point x="188" y="359"/>
      <point x="125" y="376"/>
      <point x="125" y="460" type="curve" smooth="yes"/>
      <point x="125" y="491"/>
      <point x="136" y="535"/>
      <point x="168" y="586" type="curve"/>
      <point x="94" y="620" type="line"/>
      <point x="63" y="573"/>
      <point x="40" y="520"/>
      <point x="40" y="456" type="curve" smooth="yes"/>
      <point x="40" y="309"/>
      <point x="149" y="284"/>
      <point x="266" y="284" type="curve" smooth="yes"/>
      <point x="329" y="284"/>
      <point x="399" y="285"/>
      <point x="454" y="292" type="curve"/>
      <point x="535" y="333"/>
      <point x="585" y="394"/>
      <point x="585" y="468" type="curve" smooth="yes"/>
      <point x="585" y="544"/>
      <point x="536" y="620"/>
      <point x="432" y="620" type="curve" smooth="yes"/>
      <point x="338" y="620"/>
      <point x="278" y="558"/>
      <point x="278" y="467" type="curve" smooth="yes"/>
      <point x="278" y="385"/>
      <point x="337" y="336"/>
      <point x="423" y="297" type="curve"/>
      <point x="486" y="280"/>
      <point x="521" y="253"/>
      <point x="521" y="184" type="curve" smooth="yes"/>
      <point x="521" y="102"/>
      <point x="466" y="70"/>
      <point x="383" y="70" type="curve" smooth="yes"/>
      <point x="304" y="70"/>
      <point x="239" y="105"/>
      <point x="204" y="132" type="curve"/>
      <point x="160" y="63" type="line"/>
      <point x="218" y="20"/>
      <point x="297" y="-10"/>
    </contour>
  </outline>
</glyph>
<glyph name="u112D6" format="2">
  <advance width="988"/>
  <unicode hex="112D6"/>
  <outline>
    <contour>
      <point x="283" y="0" type="line"/>
      <point x="344" y="0" type="line"/>
      <point x="565" y="404" type="line"/>
      <point x="619" y="0" type="line"/>
      <point x="679" y="0" type="line"/>
      <point x="851" y="320" type="line" smooth="yes"/>
      <point x="911" y="432"/>
      <point x="959" y="528"/>
      <point x="969" y="590" type="curve"/>
      <point x="891" y="620" type="line"/>
      <point x="880" y="555"/>
      <point x="840" y="458"/>
      <point x="783" y="352" type="curve" smooth="yes"/>
      <point x="673" y="146" type="line"/>
      <point x="626" y="531" type="line"/>
      <point x="557" y="551" type="line"/>
      <point x="367" y="183" type="line"/>
      <point x="367" y="410" type="line" smooth="yes"/>
      <point x="367" y="521"/>
      <point x="336" y="620"/>
      <point x="209" y="620" type="curve" smooth="yes"/>
      <point x="93" y="620"/>
      <point x="40" y="544"/>
      <point x="40" y="452" type="curve" smooth="yes"/>
      <point x="40" y="369"/>
      <point x="87" y="293"/>
      <point x="198" y="293" type="curve" smooth="yes"/>
      <point x="241" y="293"/>
      <point x="275" y="303"/>
      <point x="309" y="320" type="curve"/>
      <point x="309" y="401" type="line"/>
      <point x="274" y="376"/>
      <point x="245" y="370"/>
      <point x="209" y="370" type="curve" smooth="yes"/>
      <point x="154" y="370"/>
      <point x="123" y="405"/>
      <point x="123" y="457" type="curve" smooth="yes"/>
      <point x="123" y="508"/>
      <point x="154" y="540"/>
      <point x="202" y="540" type="curve" smooth="yes"/>
      <point x="272" y="540"/>
      <point x="283" y="479"/>
      <point x="283" y="400" type="curve" smooth="yes"/>
    </contour>
  </outline>
</glyph>
<glyph name="u112D7" format="2">
  <advance width="602"/>
  <unicode hex="112D7"/>
  <outline>
    <contour>
      <point x="105" y="-10" type="line"/>
      <point x="150" y="224" type="line" smooth="yes"/>
      <point x="185" y="408"/>
      <point x="290" y="535"/>
      <point x="374" y="535" type="curve" smooth="yes"/>
      <point x="422" y="535"/>
      <point x="435" y="511"/>
      <point x="435" y="455" type="curve" smooth="yes"/>
      <point x="435" y="413"/>
      <point x="421" y="354"/>
      <point x="405" y="300" type="curve" smooth="yes"/>
      <point x="389" y="247"/>
      <point x="375" y="193"/>
      <point x="375" y="144" type="curve" smooth="yes"/>
      <point x="375" y="41"/>
      <point x="430" y="-10"/>
      <point x="531" y="-10" type="curve" smooth="yes"/>
      <point x="546" y="-10"/>
      <point x="558" y="-9"/>
      <point x="576" y="-7" type="curve"/>
      <point x="582" y="73" type="line"/>
      <point x="568" y="71"/>
      <point x="555" y="70"/>
      <point x="544" y="70" type="curve" smooth="yes"/>
      <point x="500" y="70"/>
      <point x="459" y="91"/>
      <point x="459" y="152" type="curve" smooth="yes"/>
      <point x="459" y="182"/>
      <point x="470" y="228"/>
      <point x="484" y="279" type="curve" smooth="yes"/>
      <point x="501" y="342"/>
      <point x="519" y="413"/>
      <point x="519" y="470" type="curve" smooth="yes"/>
      <point x="519" y="567"/>
      <point x="477" y="620"/>
      <point x="389" y="620" type="curve" smooth="yes"/>
      <point x="299" y="620"/>
      <point x="224" y="545"/>
      <point x="176" y="462" type="curve"/>
      <point x="161" y="521"/>
      <point x="125" y="571"/>
      <point x="84" y="618" type="curve"/>
      <point x="26" y="556" type="line"/>
      <point x="73" y="504"/>
      <point x="99" y="460"/>
      <point x="99" y="399" type="curve" smooth="yes"/>
      <point x="99" y="376"/>
      <point x="95" y="356"/>
      <point x="91" y="337" type="curve" smooth="yes"/>
      <point x="22" y="0" type="line"/>
    </contour>
  </outline>
</glyph>
<glyph name="u112D8" format="2">
  <advance width="857"/>
  <unicode hex="112D8"/>
  <outline>
    <contour>
      <point x="776" y="-10" type="curve" smooth="yes"/>
      <point x="787" y="-10"/>
      <point x="800" y="-9"/>
      <point x="815" y="-7" type="curve"/>
      <point x="824" y="73" type="line"/>
      <point x="808" y="71"/>
      <point x="793" y="70"/>
      <point x="781" y="70" type="curve" smooth="yes"/>
      <point x="727" y="70"/>
      <point x="714" y="94"/>
      <point x="714" y="139" type="curve" smooth="yes"/>
      <point x="714" y="157"/>
      <point x="717" y="228"/>
      <point x="721" y="297" type="curve" smooth="yes"/>
      <point x="725" y="366"/>
      <point x="728" y="433"/>
      <point x="728" y="450" type="curve" smooth="yes"/>
      <point x="728" y="570"/>
      <point x="654" y="610"/>
      <point x="551" y="610" type="curve" smooth="yes"/>
      <point x="158" y="610" type="line"/>
      <point x="143" y="535" type="line"/>
      <point x="524" y="535" type="line" smooth="yes"/>
      <point x="629" y="535"/>
      <point x="643" y="479"/>
      <point x="643" y="428" type="curve" smooth="yes"/>
      <point x="643" y="421"/>
      <point x="641" y="381"/>
      <point x="637" y="304" type="curve" smooth="yes"/>
      <point x="634" y="252"/>
      <point x="629" y="157"/>
      <point x="629" y="131" type="curve" smooth="yes"/>
      <point x="629" y="39"/>
      <point x="668" y="-10"/>
    </contour>
    <component base="u112CA" xOffset="15"/>
  </outline>
</glyph>
<glyph name="u112D9" format="2">
  <advance width="545"/>
  <unicode hex="112D9"/>
  <outline>
    <contour>
      <point x="426" y="-10" type="curve"/>
      <point x="505" y="29" type="line"/>
      <point x="456" y="127"/>
      <point x="402" y="199"/>
      <point x="307" y="241" type="curve"/>
      <point x="307" y="222" type="line"/>
      <point x="419" y="237"/>
      <point x="497" y="295"/>
      <point x="497" y="424" type="curve" smooth="yes"/>
      <point x="497" y="603"/>
      <point x="343" y="610"/>
      <point x="244" y="610" type="curve" smooth="yes"/>
      <point x="90" y="610" type="line"/>
      <point x="75" y="535" type="line"/>
      <point x="243" y="535" type="line" smooth="yes"/>
      <point x="323" y="535"/>
      <point x="412" y="529"/>
      <point x="412" y="418" type="curve" smooth="yes"/>
      <point x="412" y="308"/>
      <point x="325" y="294"/>
      <point x="243" y="294" type="curve" smooth="yes"/>
      <point x="40" y="294" type="line"/>
      <point x="25" y="219" type="line"/>
      <point x="165" y="219" type="line"/>
      <point x="280" y="206"/>
      <point x="372" y="95"/>
    </contour>
  </outline>
</glyph>
<glyph name="u112DA" format="2">
  <advance width="638"/>
  <unicode hex="112DA"/>
  <outline>
    <contour>
      <point x="351" y="191" type="line"/>
      <point x="425" y="238"/>
      <point x="492" y="305"/>
      <point x="492" y="404" type="curve" smooth="yes"/>
      <point x="492" y="541"/>
      <point x="402" y="610"/>
      <point x="264" y="610" type="curve" smooth="yes"/>
      <point x="158" y="610" type="line" smooth="yes"/>
      <point x="118" y="610"/>
      <point x="89" y="617"/>
      <point x="66" y="626" type="curve"/>
      <point x="48" y="552" type="line"/>
      <point x="79" y="541"/>
      <point x="117" y="535"/>
      <point x="152" y="535" type="curve" smooth="yes"/>
      <point x="250" y="535" type="line" smooth="yes"/>
      <point x="352" y="535"/>
      <point x="407" y="494"/>
      <point x="407" y="400" type="curve" smooth="yes"/>
      <point x="407" y="306"/>
      <point x="322" y="240"/>
      <point x="223" y="200" type="curve"/>
    </contour>
    <contour>
      <point x="584" y="-10" type="curve"/>
      <point x="628" y="55" type="line"/>
      <point x="568" y="119"/>
      <point x="440" y="210"/>
      <point x="280" y="210" type="curve" smooth="yes"/>
      <point x="175" y="210"/>
      <point x="86" y="187"/>
      <point x="35" y="168" type="curve"/>
      <point x="48" y="91" type="line"/>
      <point x="84" y="109"/>
      <point x="168" y="132"/>
      <point x="258" y="132" type="curve" smooth="yes"/>
      <point x="403" y="132"/>
      <point x="504" y="73"/>
    </contour>
  </outline>
</glyph>
<glyph name="u112DB" format="2">
  <advance width="625"/>
  <unicode hex="112DB"/>
  <outline>
    <contour>
      <point x="312" y="-10" type="curve" smooth="yes"/>
      <point x="472" y="-10"/>
      <point x="575" y="121"/>
      <point x="575" y="305" type="curve" smooth="yes"/>
      <point x="575" y="489"/>
      <point x="472" y="620"/>
      <point x="312" y="620" type="curve" smooth="yes"/>
      <point x="152" y="620"/>
      <point x="50" y="489"/>
      <point x="50" y="305" type="curve" smooth="yes"/>
      <point x="50" y="121"/>
      <point x="152" y="-10"/>
    </contour>
    <contour>
      <point x="312" y="70" type="curve" smooth="yes"/>
      <point x="197" y="70"/>
      <point x="135" y="157"/>
      <point x="135" y="309" type="curve" smooth="yes"/>
      <point x="135" y="461"/>
      <point x="197" y="540"/>
      <point x="312" y="540" type="curve" smooth="yes"/>
      <point x="428" y="540"/>
      <point x="490" y="461"/>
      <point x="490" y="309" type="curve" smooth="yes"/>
      <point x="490" y="157"/>
      <point x="428" y="70"/>
    </contour>
  </outline>
</glyph>
<glyph name="u112DC" format="2">
  <advance width="769"/>
  <unicode hex="112DC"/>
  <outline>
    <contour>
      <point x="705" y="-10" type="curve" smooth="yes"/>
      <point x="722" y="-10"/>
      <point x="735" y="-9"/>
      <point x="750" y="-7" type="curve"/>
      <point x="759" y="74" type="line"/>
      <point x="743" y="72"/>
      <point x="724" y="70"/>
      <point x="712" y="70" type="curve" smooth="yes"/>
      <point x="658" y="70"/>
      <point x="649" y="94"/>
      <point x="649" y="139" type="curve" smooth="yes"/>
      <point x="649" y="566" type="line"/>
      <point x="607" y="610" type="line"/>
      <point x="188" y="610" type="line" smooth="yes"/>
      <point x="135" y="610"/>
      <point x="99" y="627"/>
      <point x="76" y="643" type="curve"/>
      <point x="30" y="581" type="line"/>
      <point x="64" y="551"/>
      <point x="100" y="533"/>
      <point x="168" y="533" type="curve" smooth="yes"/>
      <point x="564" y="533" type="line"/>
      <point x="564" y="131" type="line" smooth="yes"/>
      <point x="564" y="29"/>
      <point x="603" y="-10"/>
    </contour>
    <contour>
      <point x="268" y="-10" type="curve" smooth="yes"/>
      <point x="384" y="-10"/>
      <point x="438" y="68"/>
      <point x="438" y="164" type="curve" smooth="yes"/>
      <point x="438" y="260"/>
      <point x="384" y="327"/>
      <point x="283" y="327" type="curve" smooth="yes"/>
      <point x="230" y="327"/>
      <point x="191" y="309"/>
      <point x="158" y="285" type="curve"/>
      <point x="158" y="199" type="line"/>
      <point x="199" y="233"/>
      <point x="229" y="247"/>
      <point x="270" y="247" type="curve" smooth="yes"/>
      <point x="332" y="247"/>
      <point x="355" y="212"/>
      <point x="355" y="164" type="curve" smooth="yes"/>
      <point x="355" y="113"/>
      <point x="330" y="70"/>
      <point x="271" y="70" type="curve" smooth="yes"/>
      <point x="187" y="70"/>
      <point x="184" y="159"/>
      <point x="184" y="219" type="curve" smooth="yes"/>
      <point x="184" y="580" type="line"/>
      <point x="99" y="593" type="line"/>
      <point x="99" y="216" type="line" smooth="yes"/>
      <point x="99" y="83"/>
      <point x="141" y="-10"/>
    </contour>
  </outline>
</glyph>
<glyph name="u112DD" format="2">
  <advance width="651"/>
  <unicode hex="112DD"/>
  <outline>
    <contour>
      <point x="587" y="-10" type="curve" smooth="yes"/>
      <point x="604" y="-10"/>
      <point x="617" y="-9"/>
      <point x="632" y="-7" type="curve"/>
      <point x="641" y="74" type="line"/>
      <point x="625" y="72"/>
      <point x="606" y="70"/>
      <point x="594" y="70" type="curve" smooth="yes"/>
      <point x="540" y="70"/>
      <point x="531" y="94"/>
      <point x="531" y="139" type="curve" smooth="yes"/>
      <point x="531" y="566" type="line"/>
      <point x="489" y="610" type="line"/>
      <point x="188" y="610" type="line" smooth="yes"/>
      <point x="135" y="610"/>
      <point x="99" y="627"/>
      <point x="76" y="643" type="curve"/>
      <point x="30" y="581" type="line"/>
      <point x="64" y="551"/>
      <point x="100" y="533"/>
      <point x="168" y="533" type="curve" smooth="yes"/>
      <point x="446" y="533" type="line"/>
      <point x="446" y="131" type="line" smooth="yes"/>
      <point x="446" y="29"/>
      <point x="485" y="-10"/>
    </contour>
    <contour>
      <point x="235" y="-10" type="curve" smooth="yes"/>
      <point x="252" y="-10"/>
      <point x="265" y="-9"/>
      <point x="280" y="-7" type="curve"/>
      <point x="289" y="74" type="line"/>
      <point x="273" y="72"/>
      <point x="254" y="70"/>
      <point x="242" y="70" type="curve" smooth="yes"/>
      <point x="188" y="70"/>
      <point x="179" y="94"/>
      <point x="179" y="139" type="curve" smooth="yes"/>
      <point x="179" y="553" type="line"/>
      <point x="94" y="553" type="line"/>
      <point x="94" y="131" type="line" smooth="yes"/>
      <point x="94" y="29"/>
      <point x="133" y="-10"/>
    </contour>
  </outline>
</glyph>
<glyph name="u112DE" format="2">
  <advance width="647"/>
  <unicode hex="112DE"/>
  <outline>
    <contour>
      <point x="74" y="218" type="line"/>
      <point x="150" y="218"/>
      <point x="250" y="248"/>
      <point x="315" y="276" type="curve" smooth="yes"/>
      <point x="525" y="366" type="line"/>
      <point x="505" y="441" type="line"/>
      <point x="286" y="346" type="line" smooth="yes"/>
      <point x="246" y="329"/>
      <point x="133" y="293"/>
      <point x="74" y="293" type="curve"/>
    </contour>
    <contour>
      <point x="293" y="-10" type="curve" smooth="yes"/>
      <point x="473" y="-10"/>
      <point x="597" y="119"/>
      <point x="597" y="313" type="curve" smooth="yes"/>
      <point x="597" y="513"/>
      <point x="463" y="620"/>
      <point x="294" y="620" type="curve" smooth="yes"/>
      <point x="178" y="620"/>
      <point x="95" y="573"/>
      <point x="38" y="508" type="curve"/>
      <point x="94" y="451" type="line"/>
      <point x="150" y="513"/>
      <point x="215" y="541"/>
      <point x="293" y="541" type="curve" smooth="yes"/>
      <point x="429" y="541"/>
      <point x="513" y="452"/>
      <point x="513" y="312" type="curve" smooth="yes"/>
      <point x="513" y="165"/>
      <point x="423" y="69"/>
      <point x="290" y="69" type="curve" smooth="yes"/>
      <point x="265" y="69"/>
      <point x="237" y="71"/>
      <point x="210" y="77" type="curve"/>
      <point x="210" y="0" type="line"/>
      <point x="239" y="-7"/>
      <point x="265" y="-10"/>
    </contour>
  </outline>
</glyph>
<glyph name="u112DF" format="2">
  <unicode hex="112DF"/>
  <outline>
    <contour>
      <point x="-2" y="685" type="curve" smooth="yes"/>
      <point x="33" y="685"/>
      <point x="61" y="705"/>
      <point x="61" y="753" type="curve" smooth="yes"/>
      <point x="61" y="802"/>
      <point x="33" y="820"/>
      <point x="-2" y="820" type="curve" smooth="yes"/>
      <point x="-37" y="820"/>
      <point x="-63" y="802"/>
      <point x="-63" y="753" type="curve" smooth="yes"/>
      <point x="-63" y="705"/>
      <point x="-37" y="685"/>
    </contour>
  </outline>
</glyph>
<glyph name="u112E0" format="2">
  <advance width="263"/>
  <unicode hex="112E0"/>
  <outline>
    <contour>
      <point x="169" y="-10" type="line"/>
      <point x="169" y="610" type="line"/>
      <point x="85" y="620" type="line"/>
      <point x="85" y="0" type="line"/>
    </contour>
  </outline>
</glyph>
<glyph name="u112E1" format="2">
  <advance width="262"/>
  <unicode hex="112E1"/>
  <outline>
    <contour>
      <point x="170" y="-10" type="line"/>
      <point x="170" y="513" type="line" smooth="yes"/>
      <point x="170" y="666"/>
      <point x="230" y="700"/>
      <point x="291" y="700" type="curve" smooth="yes"/>
      <point x="386" y="700"/>
      <point x="420" y="623"/>
      <point x="452" y="540" type="curve"/>
      <point x="526" y="564" type="line"/>
      <point x="491" y="667"/>
      <point x="437" y="780"/>
      <point x="288" y="780" type="curve" smooth="yes"/>
      <point x="145" y="780"/>
      <point x="85" y="672"/>
      <point x="85" y="522" type="curve" smooth="yes"/>
      <point x="85" y="0" type="line"/>
    </contour>
  </outline>
</glyph>
<glyph name="u112E2" format="2">
  <advance width="274"/>
  <unicode hex="112E2"/>
  <outline>
    <contour>
      <point x="180" y="-10" type="line"/>
      <point x="180" y="504" type="line" smooth="yes"/>
      <point x="180" y="674"/>
      <point x="107" y="780"/>
      <point x="-42" y="780" type="curve" smooth="yes"/>
      <point x="-159" y="780"/>
      <point x="-248" y="712"/>
      <point x="-294" y="561" type="curve"/>
      <point x="-221" y="535" type="line"/>
      <point x="-183" y="638"/>
      <point x="-146" y="700"/>
      <point x="-52" y="700" type="curve" smooth="yes"/>
      <point x="33" y="700"/>
      <point x="95" y="655"/>
      <point x="95" y="494" type="curve" smooth="yes"/>
      <point x="95" y="0" type="line"/>
    </contour>
  </outline>
</glyph>
<glyph name="u112E3" format="2">
  <unicode hex="112E3"/>
  <outline>
    <contour>
      <point x="0" y="-200" type="curve" smooth="yes"/>
      <point x="73" y="-200"/>
      <point x="160" y="-175"/>
      <point x="235" y="-132" type="curve"/>
      <point x="199" y="-66" type="line"/>
      <point x="138" y="-100"/>
      <point x="63" y="-120"/>
      <point x="0" y="-120" type="curve" smooth="yes"/>
      <point x="-64" y="-120"/>
      <point x="-138" y="-100"/>
      <point x="-199" y="-66" type="curve"/>
      <point x="-235" y="-132" type="line"/>
      <point x="-159" y="-176"/>
      <point x="-76" y="-200"/>
    </contour>
  </outline>
</glyph>
<glyph name="u112E5" format="2">
  <unicode hex="112E5"/>
  <outline>
    <contour>
      <point x="398" y="579" type="line"/>
      <point x="374" y="726"/>
      <point x="189" y="793"/>
      <point x="9" y="796" type="curve"/>
      <point x="-3" y="728" type="line"/>
      <point x="142" y="723"/>
      <point x="273" y="684"/>
      <point x="315" y="589" type="curve"/>
    </contour>
  </outline>
</glyph>
<glyph name="u112E6" format="2">
  <unicode hex="112E6"/>
  <outline>
    <contour>
      <point x="398" y="579" type="line"/>
      <point x="362" y="766"/>
      <point x="262" y="888"/>
      <point x="114" y="939" type="curve"/>
      <point x="74" y="881" type="line"/>
      <point x="163" y="846"/>
      <point x="220" y="801"/>
      <point x="261" y="742" type="curve"/>
      <point x="189" y="777"/>
      <point x="98" y="795"/>
      <point x="9" y="796" type="curve"/>
      <point x="-3" y="728" type="line"/>
      <point x="142" y="723"/>
      <point x="274" y="683"/>
      <point x="315" y="589" type="curve"/>
    </contour>
  </outline>
</glyph>
<glyph name="u112E7" format="2">
  <unicode hex="112E7"/>
  <outline>
    <contour>
      <point x="531" y="575" type="line"/>
      <point x="535" y="597"/>
      <point x="536" y="625"/>
      <point x="536" y="636" type="curve" smooth="yes"/>
      <point x="536" y="724"/>
      <point x="472" y="771"/>
      <point x="391" y="771" type="curve" smooth="yes"/>
      <point x="354" y="771"/>
      <point x="298" y="761"/>
      <point x="255" y="753" type="curve" smooth="yes"/>
      <point x="216" y="746"/>
      <point x="176" y="739"/>
      <point x="148" y="739" type="curve" smooth="yes"/>
      <point x="92" y="739"/>
      <point x="80" y="772"/>
      <point x="72" y="815" type="curve"/>
      <point x="0" y="802" type="line"/>
      <point x="0" y="677"/>
      <point x="88" y="668"/>
      <point x="146" y="668" type="curve" smooth="yes"/>
      <point x="184" y="668"/>
      <point x="226" y="676"/>
      <point x="261" y="684" type="curve" smooth="yes"/>
      <point x="300" y="693"/>
      <point x="340" y="700"/>
      <point x="369" y="700" type="curve" smooth="yes"/>
      <point x="441" y="700"/>
      <point x="456" y="658"/>
      <point x="456" y="622" type="curve" smooth="yes"/>
      <point x="456" y="613"/>
      <point x="455" y="601"/>
      <point x="452" y="590" type="curve"/>
    </contour>
  </outline>
</glyph>
<glyph name="u112E8" format="2">
  <unicode hex="112E8"/>
  <outline>
    <contour>
      <point x="402" y="556" type="curve" smooth="yes"/>
      <point x="485" y="556"/>
      <point x="531" y="604"/>
      <point x="531" y="676" type="curve" smooth="yes"/>
      <point x="531" y="753"/>
      <point x="475" y="794"/>
      <point x="394" y="794" type="curve" smooth="yes"/>
      <point x="347" y="794"/>
      <point x="294" y="780"/>
      <point x="257" y="770" type="curve" smooth="yes"/>
      <point x="220" y="760"/>
      <point x="185" y="754"/>
      <point x="150" y="754" type="curve" smooth="yes"/>
      <point x="92" y="754"/>
      <point x="79" y="782"/>
      <point x="71" y="825" type="curve"/>
      <point x="0" y="812" type="line"/>
      <point x="0" y="694"/>
      <point x="85" y="683"/>
      <point x="143" y="683" type="curve" smooth="yes"/>
      <point x="191" y="683"/>
      <point x="236" y="691"/>
      <point x="277" y="706" type="curve"/>
      <point x="275" y="695"/>
      <point x="274" y="684"/>
      <point x="274" y="674" type="curve" smooth="yes"/>
      <point x="274" y="601"/>
      <point x="321" y="556"/>
    </contour>
    <contour>
      <point x="404" y="627" type="curve" smooth="yes"/>
      <point x="368" y="627"/>
      <point x="348" y="647"/>
      <point x="348" y="682" type="curve" smooth="yes"/>
      <point x="348" y="697"/>
      <point x="350" y="712"/>
      <point x="357" y="723" type="curve"/>
      <point x="371" y="726"/>
      <point x="384" y="728"/>
      <point x="397" y="728" type="curve" smooth="yes"/>
      <point x="435" y="728"/>
      <point x="457" y="708"/>
      <point x="457" y="676" type="curve" smooth="yes"/>
      <point x="457" y="647"/>
      <point x="437" y="627"/>
    </contour>
  </outline>
</glyph>
<glyph name="u112E9" format="2">
  <unicode hex="112E9"/>
  <outline>
    <contour>
      <point x="61" y="-146" type="curve" smooth="yes"/>
      <point x="96" y="-146"/>
      <point x="124" y="-126"/>
      <point x="124" y="-78" type="curve" smooth="yes"/>
      <point x="124" y="-29"/>
      <point x="96" y="-11"/>
      <point x="61" y="-11" type="curve" smooth="yes"/>
      <point x="26" y="-11"/>
      <point x="0" y="-29"/>
      <point x="0" y="-78" type="curve" smooth="yes"/>
      <point x="0" y="-126"/>
      <point x="26" y="-146"/>
    </contour>
  </outline>
</glyph>
<glyph name="u112EA" format="2">
  <unicode hex="112EA"/>
  <outline>
    <contour>
      <point x="240" y="-280" type="line"/>
      <point x="290" y="-217" type="line"/>
      <point x="53" y="-30" type="line"/>
      <point x="1" y="-90" type="line"/>
    </contour>
  </outline>
</glyph>
<glyph name="u112F0" format="2">
  <advance width="533"/>
  <unicode hex="112F0"/>
  <outline>
    <contour>
      <point x="266" y="72" type="curve" smooth="yes"/>
      <point x="386" y="72"/>
      <point x="483" y="164"/>
      <point x="483" y="300" type="curve" smooth="yes"/>
      <point x="483" y="436"/>
      <point x="386" y="528"/>
      <point x="266" y="528" type="curve" smooth="yes"/>
      <point x="146" y="528"/>
      <point x="50" y="436"/>
      <point x="50" y="300" type="curve" smooth="yes"/>
      <point x="50" y="164"/>
      <point x="146" y="72"/>
    </contour>
    <contour>
      <point x="265" y="152" type="curve" smooth="yes"/>
      <point x="193" y="152"/>
      <point x="135" y="207"/>
      <point x="135" y="299" type="curve" smooth="yes"/>
      <point x="135" y="391"/>
      <point x="193" y="448"/>
      <point x="265" y="448" type="curve" smooth="yes"/>
      <point x="337" y="448"/>
      <point x="398" y="391"/>
      <point x="398" y="299" type="curve" smooth="yes"/>
      <point x="398" y="207"/>
      <point x="337" y="152"/>
    </contour>
  </outline>
</glyph>
<glyph name="u112F1" format="2">
  <advance width="518"/>
  <unicode hex="112F1"/>
  <outline>
    <contour>
      <point x="447" y="-10" type="curve" smooth="yes"/>
      <point x="462" y="-10"/>
      <point x="474" y="-9"/>
      <point x="489" y="-7" type="curve"/>
      <point x="498" y="73" type="line"/>
      <point x="482" y="71"/>
      <point x="463" y="70"/>
      <point x="451" y="70" type="curve" smooth="yes"/>
      <point x="396" y="70"/>
      <point x="388" y="94"/>
      <point x="388" y="145" type="curve" smooth="yes"/>
      <point x="388" y="385" type="line" smooth="yes"/>
      <point x="388" y="495"/>
      <point x="359" y="620"/>
      <point x="216" y="620" type="curve" smooth="yes"/>
      <point x="104" y="620"/>
      <point x="50" y="543"/>
      <point x="50" y="448" type="curve" smooth="yes"/>
      <point x="50" y="349"/>
      <point x="109" y="287"/>
      <point x="206" y="287" type="curve" smooth="yes"/>
      <point x="255" y="287"/>
      <point x="291" y="297"/>
      <point x="330" y="315" type="curve"/>
      <point x="330" y="396" type="line"/>
      <point x="289" y="376"/>
      <point x="259" y="363"/>
      <point x="223" y="363" type="curve" smooth="yes"/>
      <point x="163" y="363"/>
      <point x="133" y="400"/>
      <point x="133" y="454" type="curve" smooth="yes"/>
      <point x="133" y="507"/>
      <point x="163" y="540"/>
      <point x="212" y="540" type="curve" smooth="yes"/>
      <point x="300" y="540"/>
      <point x="302" y="436"/>
      <point x="302" y="372" type="curve"/>
      <point x="302" y="136" type="line" smooth="yes"/>
      <point x="302" y="39"/>
      <point x="337" y="-10"/>
    </contour>
  </outline>
</glyph>
<glyph name="u112F2" format="2">
  <advance width="627"/>
  <unicode hex="112F2"/>
  <outline>
    <contour>
      <point x="222" y="-10" type="curve" smooth="yes"/>
      <point x="413" y="-10"/>
      <point x="530" y="145"/>
      <point x="530" y="329" type="curve" smooth="yes"/>
      <point x="530" y="511"/>
      <point x="416" y="620"/>
      <point x="238" y="620" type="curve" smooth="yes"/>
      <point x="168" y="620"/>
      <point x="106" y="603"/>
      <point x="40" y="569" type="curve"/>
      <point x="71" y="499" type="line"/>
      <point x="124" y="526"/>
      <point x="177" y="540"/>
      <point x="234" y="540" type="curve" smooth="yes"/>
      <point x="380" y="540"/>
      <point x="445" y="448"/>
      <point x="445" y="325" type="curve" smooth="yes"/>
      <point x="445" y="193"/>
      <point x="371" y="68"/>
      <point x="222" y="68" type="curve" smooth="yes"/>
      <point x="167" y="68"/>
      <point x="140" y="85"/>
      <point x="140" y="117" type="curve" smooth="yes"/>
      <point x="140" y="149"/>
      <point x="167" y="165"/>
      <point x="214" y="165" type="curve" smooth="yes"/>
      <point x="322" y="165"/>
      <point x="445" y="80"/>
      <point x="564" y="-10" type="curve"/>
      <point x="607" y="50" type="line"/>
      <point x="459" y="157"/>
      <point x="337" y="241"/>
      <point x="214" y="241" type="curve" smooth="yes"/>
      <point x="138" y="241"/>
      <point x="55" y="209"/>
      <point x="55" y="115" type="curve" smooth="yes"/>
      <point x="55" y="25"/>
      <point x="131" y="-10"/>
    </contour>
  </outline>
</glyph>
<glyph name="u112F3" format="2">
  <advance width="519"/>
  <unicode hex="112F3"/>
  <outline>
    <contour>
      <point x="242" y="-10" type="curve" smooth="yes"/>
      <point x="378" y="-10"/>
      <point x="469" y="57"/>
      <point x="469" y="183" type="curve" smooth="yes"/>
      <point x="469" y="250"/>
      <point x="443" y="289"/>
      <point x="404" y="316" type="curve"/>
      <point x="437" y="343"/>
      <point x="459" y="382"/>
      <point x="459" y="442" type="curve" smooth="yes"/>
      <point x="459" y="565"/>
      <point x="365" y="620"/>
      <point x="248" y="620" type="curve" smooth="yes"/>
      <point x="164" y="620"/>
      <point x="98" y="594"/>
      <point x="47" y="567" type="curve"/>
      <point x="82" y="492" type="line"/>
      <point x="125" y="516"/>
      <point x="180" y="540"/>
      <point x="244" y="540" type="curve" smooth="yes"/>
      <point x="323" y="540"/>
      <point x="374" y="504"/>
      <point x="374" y="444" type="curve" smooth="yes"/>
      <point x="374" y="398"/>
      <point x="344" y="353"/>
      <point x="248" y="353" type="curve" smooth="yes"/>
      <point x="212" y="353"/>
      <point x="160" y="359"/>
      <point x="140" y="364" type="curve"/>
      <point x="129" y="285" type="line"/>
      <point x="177" y="277"/>
      <point x="218" y="273"/>
      <point x="261" y="273" type="curve" smooth="yes"/>
      <point x="282" y="273"/>
      <point x="295" y="274"/>
      <point x="308" y="276" type="curve"/>
      <point x="361" y="260"/>
      <point x="384" y="228"/>
      <point x="384" y="185" type="curve" smooth="yes"/>
      <point x="384" y="100"/>
      <point x="309" y="70"/>
      <point x="241" y="70" type="curve" smooth="yes"/>
      <point x="168" y="70"/>
      <point x="118" y="101"/>
      <point x="78" y="132" type="curve"/>
      <point x="35" y="61" type="line"/>
      <point x="84" y="26"/>
      <point x="144" y="-10"/>
    </contour>
  </outline>
</glyph>
<glyph name="u112F4" format="2">
  <advance width="645"/>
  <unicode hex="112F4"/>
  <outline>
    <contour>
      <point x="349" y="-10" type="curve" smooth="yes"/>
      <point x="449" y="-10"/>
      <point x="526" y="40"/>
      <point x="526" y="153" type="curve" smooth="yes"/>
      <point x="526" y="236"/>
      <point x="473" y="295"/>
      <point x="383" y="393" type="curve" smooth="yes"/>
      <point x="282" y="502" type="line" smooth="yes"/>
      <point x="193" y="599"/>
      <point x="165" y="620"/>
      <point x="114" y="620" type="curve" smooth="yes"/>
      <point x="55" y="620"/>
      <point x="29" y="597"/>
      <point x="0" y="550" type="curve"/>
      <point x="55" y="503" type="line"/>
      <point x="72" y="530"/>
      <point x="86" y="543"/>
      <point x="108" y="543" type="curve" smooth="yes"/>
      <point x="128" y="543"/>
      <point x="155" y="521"/>
      <point x="227" y="442" type="curve" smooth="yes"/>
      <point x="330" y="329" type="line" smooth="yes"/>
      <point x="407" y="245"/>
      <point x="441" y="202"/>
      <point x="441" y="152" type="curve" smooth="yes"/>
      <point x="441" y="92"/>
      <point x="400" y="70"/>
      <point x="353" y="70" type="curve" smooth="yes"/>
      <point x="299" y="70"/>
      <point x="261" y="99"/>
      <point x="261" y="155" type="curve" smooth="yes"/>
      <point x="261" y="209"/>
      <point x="292" y="245"/>
      <point x="387" y="336" type="curve" smooth="yes"/>
      <point x="625" y="562" type="line"/>
      <point x="570" y="620" type="line"/>
      <point x="328" y="390" type="line" smooth="yes"/>
      <point x="237" y="303"/>
      <point x="176" y="244"/>
      <point x="176" y="147" type="curve" smooth="yes"/>
      <point x="176" y="45"/>
      <point x="245" y="-10"/>
    </contour>
  </outline>
</glyph>
<glyph name="u112F5" format="2">
  <advance width="606"/>
  <unicode hex="112F5"/>
  <outline>
    <contour>
      <point x="533" y="-10" type="curve" smooth="yes"/>
      <point x="549" y="-10"/>
      <point x="563" y="-8"/>
      <point x="578" y="-4" type="curve"/>
      <point x="586" y="74" type="line"/>
      <point x="576" y="71"/>
      <point x="565" y="70"/>
      <point x="553" y="70" type="curve" smooth="yes"/>
      <point x="514" y="70"/>
      <point x="509" y="97"/>
      <point x="509" y="136" type="curve"/>
      <point x="509" y="610" type="line"/>
      <point x="424" y="620" type="line"/>
      <point x="424" y="468" type="line"/>
      <point x="432" y="541" type="line"/>
      <point x="420" y="450"/>
      <point x="360" y="405"/>
      <point x="262" y="405" type="curve" smooth="yes"/>
      <point x="132" y="405"/>
      <point x="109" y="485"/>
      <point x="101" y="610" type="curve"/>
      <point x="20" y="620" type="line"/>
      <point x="22" y="420"/>
      <point x="97" y="325"/>
      <point x="262" y="325" type="curve" smooth="yes"/>
      <point x="322" y="325"/>
      <point x="396" y="344"/>
      <point x="443" y="417" type="curve"/>
      <point x="423" y="430" type="line"/>
      <point x="423" y="127" type="line"/>
      <point x="423" y="51"/>
      <point x="440" y="-10"/>
    </contour>
  </outline>
</glyph>
<glyph name="u112F6" format="2">
  <advance width="519"/>
  <unicode hex="112F6"/>
  <outline>
    <contour>
      <point x="272" y="-10" type="curve" smooth="yes"/>
      <point x="375" y="-10"/>
      <point x="456" y="26"/>
      <point x="504" y="61" type="curve"/>
      <point x="461" y="132" type="line"/>
      <point x="424" y="103"/>
      <point x="354" y="70"/>
      <point x="273" y="70" type="curve" smooth="yes"/>
      <point x="183" y="70"/>
      <point x="125" y="112"/>
      <point x="125" y="183" type="curve" smooth="yes"/>
      <point x="125" y="228"/>
      <point x="150" y="264"/>
      <point x="203" y="280" type="curve"/>
      <point x="217" y="277"/>
      <point x="243" y="273"/>
      <point x="272" y="273" type="curve" smooth="yes"/>
      <point x="306" y="273"/>
      <point x="337" y="277"/>
      <point x="385" y="285" type="curve"/>
      <point x="374" y="364" type="line"/>
      <point x="354" y="359"/>
      <point x="302" y="353"/>
      <point x="266" y="353" type="curve" smooth="yes"/>
      <point x="170" y="353"/>
      <point x="140" y="398"/>
      <point x="140" y="450" type="curve" smooth="yes"/>
      <point x="140" y="504"/>
      <point x="180" y="540"/>
      <point x="263" y="540" type="curve" smooth="yes"/>
      <point x="322" y="540"/>
      <point x="359" y="526"/>
      <point x="402" y="502" type="curve"/>
      <point x="437" y="577" type="line"/>
      <point x="386" y="604"/>
      <point x="336" y="620"/>
      <point x="270" y="620" type="curve" smooth="yes"/>
      <point x="149" y="620"/>
      <point x="55" y="569"/>
      <point x="55" y="446" type="curve" smooth="yes"/>
      <point x="55" y="378"/>
      <point x="90" y="328"/>
      <point x="139" y="301" type="curve"/>
      <point x="140" y="332" type="line"/>
      <point x="84" y="296"/>
      <point x="40" y="246"/>
      <point x="40" y="177" type="curve" smooth="yes"/>
      <point x="40" y="58"/>
      <point x="130" y="-10"/>
    </contour>
  </outline>
</glyph>
<glyph name="u112F7" format="2">
  <advance width="725"/>
  <unicode hex="112F7"/>
  <outline>
    <contour>
      <point x="377" y="-10" type="curve" smooth="yes"/>
      <point x="550" y="-10"/>
      <point x="675" y="84"/>
      <point x="675" y="310" type="curve" smooth="yes"/>
      <point x="675" y="477"/>
      <point x="597" y="620"/>
      <point x="453" y="620" type="curve" smooth="yes"/>
      <point x="357" y="620"/>
      <point x="312" y="556"/>
      <point x="312" y="471" type="curve" smooth="yes"/>
      <point x="312" y="293"/>
      <point x="517" y="249"/>
      <point x="618" y="241" type="curve"/>
      <point x="618" y="316" type="line"/>
      <point x="530" y="329"/>
      <point x="397" y="365"/>
      <point x="397" y="471" type="curve" smooth="yes"/>
      <point x="397" y="518"/>
      <point x="421" y="538"/>
      <point x="458" y="538" type="curve" smooth="yes"/>
      <point x="551" y="538"/>
      <point x="588" y="416"/>
      <point x="588" y="309" type="curve" smooth="yes"/>
      <point x="588" y="162"/>
      <point x="537" y="70"/>
      <point x="384" y="70" type="curve" smooth="yes"/>
      <point x="171" y="70"/>
      <point x="125" y="275"/>
      <point x="125" y="460" type="curve" smooth="yes"/>
      <point x="125" y="510"/>
      <point x="131" y="560"/>
      <point x="138" y="599" type="curve"/>
      <point x="55" y="620" type="line"/>
      <point x="45" y="568"/>
      <point x="40" y="517"/>
      <point x="40" y="456" type="curve" smooth="yes"/>
      <point x="40" y="225"/>
      <point x="119" y="-10"/>
    </contour>
  </outline>
</glyph>
<glyph name="u112F8" format="2">
  <advance width="705"/>
  <unicode hex="112F8"/>
  <outline>
    <contour>
      <point x="289" y="0" type="curve" smooth="yes"/>
      <point x="672" y="0" type="line"/>
      <point x="685" y="75" type="line"/>
      <point x="304" y="75" type="line" smooth="yes"/>
      <point x="204" y="75"/>
      <point x="125" y="102"/>
      <point x="125" y="191" type="curve" smooth="yes"/>
      <point x="125" y="269"/>
      <point x="187" y="309"/>
      <point x="234" y="339" type="curve" smooth="yes"/>
      <point x="569" y="556" type="line"/>
      <point x="523" y="620" type="line"/>
      <point x="193" y="409" type="line" smooth="yes"/>
      <point x="131" y="370"/>
      <point x="40" y="303"/>
      <point x="40" y="188" type="curve" smooth="yes"/>
      <point x="40" y="27"/>
      <point x="165" y="0"/>
    </contour>
  </outline>
</glyph>
<glyph name="u112F9" format="2">
  <advance width="726"/>
  <unicode hex="112F9"/>
  <outline>
    <contour>
      <point x="357" y="-10" type="curve" smooth="yes"/>
      <point x="516" y="-10"/>
      <point x="647" y="73"/>
      <point x="686" y="217" type="curve"/>
      <point x="616" y="259" type="line"/>
      <point x="580" y="150"/>
      <point x="484" y="70"/>
      <point x="360" y="70" type="curve" smooth="yes"/>
      <point x="238" y="70"/>
      <point x="125" y="141"/>
      <point x="125" y="334" type="curve" smooth="yes"/>
      <point x="125" y="436"/>
      <point x="161" y="527"/>
      <point x="191" y="594" type="curve"/>
      <point x="112" y="620" type="line"/>
      <point x="85" y="570"/>
      <point x="40" y="459"/>
      <point x="40" y="331" type="curve" smooth="yes"/>
      <point x="40" y="128"/>
      <point x="152" y="-10"/>
    </contour>
    <contour>
      <point x="206" y="68" type="line"/>
      <point x="566" y="539" type="line"/>
      <point x="505" y="590" type="line"/>
      <point x="147" y="123" type="line"/>
    </contour>
  </outline>
</glyph>
<glyph name="u112C0_u112E2" format="2">
  <advance width="782"/>
  <outline>
    <contour>
      <point x="200" y="-10" type="curve" smooth="yes"/>
      <point x="310" y="-10"/>
      <point x="373" y="58"/>
      <point x="373" y="142" type="curve" smooth="yes"/>
      <point x="373" y="205"/>
      <point x="323" y="278"/>
      <point x="262" y="363" type="curve" smooth="yes"/>
      <point x="70" y="630" type="line"/>
      <point x="8" y="584" type="line"/>
      <point x="174" y="353" type="line" smooth="yes"/>
      <point x="263" y="229"/>
      <point x="288" y="194"/>
      <point x="288" y="143" type="curve" smooth="yes"/>
      <point x="288" y="97"/>
      <point x="250" y="70"/>
      <point x="199" y="70" type="curve" smooth="yes"/>
      <point x="148" y="70"/>
      <point x="109" y="97"/>
      <point x="109" y="143" type="curve" smooth="yes"/>
      <point x="109" y="183"/>
      <point x="124" y="219"/>
      <point x="207" y="338" type="curve" smooth="yes"/>
      <point x="359" y="556" type="line" smooth="yes"/>
      <point x="428" y="655"/>
      <point x="462" y="700"/>
      <point x="531" y="700" type="curve" smooth="yes"/>
      <point x="582" y="700"/>
      <point x="645" y="667"/>
      <point x="645" y="513" type="curve" smooth="yes"/>
      <point x="645" y="0" type="line"/>
      <point x="730" y="-10" type="line"/>
      <point x="730" y="522" type="line" smooth="yes"/>
      <point x="730" y="672"/>
      <point x="668" y="780"/>
      <point x="531" y="780" type="curve" smooth="yes"/>
      <point x="420" y="780"/>
      <point x="364" y="703"/>
      <point x="304" y="616" type="curve" smooth="yes"/>
      <point x="154" y="399" type="line" smooth="yes"/>
      <point x="50" y="248"/>
      <point x="24" y="199"/>
      <point x="24" y="140" type="curve" smooth="yes"/>
      <point x="24" y="55"/>
      <point x="92" y="-10"/>
    </contour>
  </outline>
</glyph>
<glyph name="u112C3_u112E2" format="2">
  <advance width="1256"/>
  <outline>
    <contour>
      <point x="764" y="-10" type="curve" smooth="yes"/>
      <point x="888" y="-10"/>
      <point x="940" y="78"/>
      <point x="940" y="169" type="curve" smooth="yes"/>
      <point x="940" y="251"/>
      <point x="898" y="362"/>
      <point x="744" y="362" type="curve" smooth="yes"/>
      <point x="594" y="362"/>
      <point x="466" y="271"/>
      <point x="395" y="111" type="curve"/>
      <point x="420" y="116" type="line"/>
      <point x="413" y="485" type="line"/>
      <point x="344" y="500" type="line"/>
      <point x="150" y="118" type="line"/>
      <point x="171" y="54" type="line"/>
      <point x="171" y="444" type="line" smooth="yes"/>
      <point x="171" y="546"/>
      <point x="141" y="609"/>
      <point x="29" y="620" type="curve"/>
      <point x="10" y="546" type="line"/>
      <point x="58" y="543"/>
      <point x="90" y="514"/>
      <point x="90" y="444" type="curve" smooth="yes"/>
      <point x="90" y="0" type="line"/>
      <point x="165" y="0" type="line"/>
      <point x="359" y="374" type="line"/>
      <point x="339" y="384" type="line"/>
      <point x="347" y="0" type="line"/>
      <point x="413" y="0" type="line"/>
      <point x="489" y="188"/>
      <point x="604" y="285"/>
      <point x="732" y="285" type="curve" smooth="yes"/>
      <point x="822" y="285"/>
      <point x="857" y="243"/>
      <point x="857" y="176" type="curve" smooth="yes"/>
      <point x="857" y="117"/>
      <point x="830" y="70"/>
      <point x="766" y="70" type="curve" smooth="yes"/>
      <point x="682" y="70"/>
      <point x="662" y="153"/>
      <point x="662" y="228" type="curve" smooth="yes"/>
      <point x="662" y="438"/>
      <point x="740" y="700"/>
      <point x="946" y="700" type="curve" smooth="yes"/>
      <point x="1012" y="700"/>
      <point x="1077" y="666"/>
      <point x="1077" y="513" type="curve" smooth="yes"/>
      <point x="1077" y="-10" type="line"/>
      <point x="1162" y="0" type="line"/>
      <point x="1162" y="522" type="line" smooth="yes"/>
      <point x="1162" y="672"/>
      <point x="1099" y="780"/>
      <point x="949" y="780" type="curve" smooth="yes"/>
      <point x="672" y="780"/>
      <point x="579" y="434"/>
      <point x="579" y="220" type="curve" smooth="yes"/>
      <point x="579" y="81"/>
      <point x="638" y="-10"/>
    </contour>
  </outline>
</glyph>
<glyph name="u112D1_u112E2" format="2">
  <advance width="1119"/>
  <outline>
    <contour>
      <point x="240" y="-10" type="line"/>
      <point x="395" y="137"/>
      <point x="483" y="258"/>
      <point x="624" y="528" type="curve" smooth="yes"/>
      <point x="668" y="613"/>
      <point x="720" y="700"/>
      <point x="819" y="700" type="curve" smooth="yes"/>
      <point x="888" y="700"/>
      <point x="940" y="666"/>
      <point x="940" y="513" type="curve" smooth="yes"/>
      <point x="940" y="-10" type="line"/>
      <point x="1025" y="0" type="line"/>
      <point x="1025" y="522" type="line" smooth="yes"/>
      <point x="1025" y="672"/>
      <point x="973" y="780"/>
      <point x="822" y="780" type="curve" smooth="yes"/>
      <point x="673" y="780"/>
      <point x="610" y="671"/>
      <point x="550" y="553" type="curve" smooth="yes"/>
      <point x="452" y="360"/>
      <point x="356" y="215"/>
      <point x="231" y="84" type="curve"/>
      <point x="185" y="169"/>
      <point x="119" y="369"/>
      <point x="93" y="497" type="curve"/>
      <point x="10" y="480" type="line"/>
      <point x="27" y="379"/>
      <point x="108" y="123"/>
      <point x="169" y="9" type="curve"/>
    </contour>
  </outline>
</glyph>
<glyph name="u112D4_u112E2" format="2">
  <advance width="1261"/>
  <outline>
    <contour>
      <point x="1167" y="-10" type="line"/>
      <point x="1167" y="522" type="line" smooth="yes"/>
      <point x="1167" y="672"/>
      <point x="1107" y="780"/>
      <point x="964" y="780" type="curve" smooth="yes"/>
      <point x="833" y="780"/>
      <point x="793" y="702"/>
      <point x="729" y="567" type="curve" smooth="yes"/>
      <point x="529" y="146" type="line"/>
      <point x="482" y="531" type="line"/>
      <point x="413" y="551" type="line"/>
      <point x="218" y="143" type="line"/>
      <point x="171" y="389" type="line" smooth="yes"/>
      <point x="152" y="487"/>
      <point x="128" y="575"/>
      <point x="78" y="620" type="curve"/>
      <point x="20" y="567" type="line"/>
      <point x="52" y="535"/>
      <point x="75" y="477"/>
      <point x="96" y="367" type="curve" smooth="yes"/>
      <point x="167" y="0" type="line"/>
      <point x="227" y="0" type="line"/>
      <point x="421" y="404" type="line"/>
      <point x="475" y="0" type="line"/>
      <point x="535" y="0" type="line"/>
      <point x="805" y="545" type="line" smooth="yes"/>
      <point x="863" y="661"/>
      <point x="890" y="700"/>
      <point x="961" y="700" type="curve" smooth="yes"/>
      <point x="1022" y="700"/>
      <point x="1082" y="666"/>
      <point x="1082" y="513" type="curve" smooth="yes"/>
      <point x="1082" y="0" type="line"/>
    </contour>
  </outline>
</glyph>
<glyph name="u112D6_u112E2" format="2">
  <advance width="1389"/>
  <outline>
    <contour>
      <point x="1295" y="-10" type="line"/>
      <point x="1295" y="522" type="line" smooth="yes"/>
      <point x="1295" y="672"/>
      <point x="1235" y="780"/>
      <point x="1092" y="780" type="curve" smooth="yes"/>
      <point x="958" y="780"/>
      <point x="913" y="682"/>
      <point x="854" y="552" type="curve" smooth="yes"/>
      <point x="673" y="155" type="line"/>
      <point x="626" y="531" type="line"/>
      <point x="557" y="551" type="line"/>
      <point x="367" y="183" type="line"/>
      <point x="367" y="410" type="line" smooth="yes"/>
      <point x="367" y="521"/>
      <point x="336" y="620"/>
      <point x="209" y="620" type="curve" smooth="yes"/>
      <point x="93" y="620"/>
      <point x="40" y="544"/>
      <point x="40" y="452" type="curve" smooth="yes"/>
      <point x="40" y="369"/>
      <point x="87" y="293"/>
      <point x="198" y="293" type="curve" smooth="yes"/>
      <point x="241" y="293"/>
      <point x="275" y="303"/>
      <point x="309" y="320" type="curve"/>
      <point x="309" y="401" type="line"/>
      <point x="274" y="376"/>
      <point x="245" y="370"/>
      <point x="209" y="370" type="curve" smooth="yes"/>
      <point x="154" y="370"/>
      <point x="123" y="405"/>
      <point x="123" y="457" type="curve" smooth="yes"/>
      <point x="123" y="508"/>
      <point x="154" y="540"/>
      <point x="202" y="540" type="curve" smooth="yes"/>
      <point x="272" y="540"/>
      <point x="283" y="479"/>
      <point x="283" y="400" type="curve" smooth="yes"/>
      <point x="283" y="0" type="line"/>
      <point x="344" y="0" type="line"/>
      <point x="565" y="404" type="line"/>
      <point x="619" y="0" type="line"/>
      <point x="679" y="0" type="line"/>
      <point x="928" y="528" type="line" smooth="yes"/>
      <point x="980" y="638"/>
      <point x="1014" y="700"/>
      <point x="1089" y="700" type="curve" smooth="yes"/>
      <point x="1150" y="700"/>
      <point x="1210" y="666"/>
      <point x="1210" y="513" type="curve" smooth="yes"/>
      <point x="1210" y="0" type="line"/>
    </contour>
  </outline>
</glyph>
<glyph name="u112E1.alt" format="2">
  <advance width="262"/>
  <outline>
    <contour>
      <point x="170" y="-10" type="line"/>
      <point x="170" y="513" type="line" smooth="yes"/>
      <point x="170" y="666"/>
      <point x="230" y="700"/>
      <point x="291" y="700" type="curve" smooth="yes"/>
      <point x="368" y="700"/>
      <point x="405" y="650"/>
      <point x="433" y="586" type="curve"/>
      <point x="518" y="586" type="line"/>
      <point x="483" y="683"/>
      <point x="426" y="780"/>
      <point x="288" y="780" type="curve" smooth="yes"/>
      <point x="145" y="780"/>
      <point x="85" y="672"/>
      <point x="85" y="522" type="curve" smooth="yes"/>
      <point x="85" y="0" type="line"/>
    </contour>
  </outline>
</glyph>
<glyph name="u112E1.alt3" format="2">
  <advance width="262"/>
  <outline>
    <contour>
      <point x="170" y="-10" type="line"/>
      <point x="170" y="513" type="line" smooth="yes"/>
      <point x="170" y="666"/>
      <point x="230" y="700"/>
      <point x="291" y="700" type="curve" smooth="yes"/>
      <point x="374" y="700"/>
      <point x="411" y="641"/>
      <point x="440" y="570" type="curve"/>
      <point x="515" y="594" type="line"/>
      <point x="480" y="688"/>
      <point x="423" y="780"/>
      <point x="288" y="780" type="curve" smooth="yes"/>
      <point x="145" y="780"/>
      <point x="85" y="672"/>
      <point x="85" y="522" type="curve" smooth="yes"/>
      <point x="85" y="0" type="line"/>
    </contour>
  </outline>
</glyph>
<glyph name="u112E1_u112BD" format="2">
  <advance width="944"/>
  <outline>
    <contour>
      <point x="170" y="-10" type="line"/>
      <point x="170" y="473" type="line" smooth="yes"/>
      <point x="170" y="659"/>
      <point x="269" y="700"/>
      <point x="365" y="700" type="curve" smooth="yes"/>
      <point x="483" y="700"/>
      <point x="557" y="651"/>
      <point x="557" y="473" type="curve" smooth="yes"/>
      <point x="557" y="272" type="line" smooth="yes"/>
      <point x="557" y="187"/>
      <point x="555" y="70"/>
      <point x="459" y="70" type="curve" smooth="yes"/>
      <point x="398" y="70"/>
      <point x="373" y="118"/>
      <point x="373" y="171" type="curve" smooth="yes"/>
      <point x="373" y="226"/>
      <point x="400" y="269"/>
      <point x="462" y="269" type="curve" smooth="yes"/>
      <point x="505" y="269"/>
      <point x="538" y="249"/>
      <point x="579" y="217" type="curve"/>
      <point x="579" y="304" type="line"/>
      <point x="546" y="329"/>
      <point x="508" y="347"/>
      <point x="456" y="347" type="curve" smooth="yes"/>
      <point x="349" y="347"/>
      <point x="290" y="270"/>
      <point x="290" y="167" type="curve" smooth="yes"/>
      <point x="290" y="71"/>
      <point x="342" y="-10"/>
      <point x="461" y="-10" type="curve" smooth="yes"/>
      <point x="637" y="-10"/>
      <point x="639" y="163"/>
      <point x="639" y="246" type="curve" smooth="yes"/>
      <point x="639" y="500" type="line" smooth="yes"/>
      <point x="639" y="684"/>
      <point x="536" y="780"/>
      <point x="362" y="780" type="curve" smooth="yes"/>
      <point x="170" y="780"/>
      <point x="85" y="655"/>
      <point x="85" y="482" type="curve" smooth="yes"/>
      <point x="85" y="0" type="line"/>
    </contour>
    <contour>
      <point x="850" y="-10" type="line"/>
      <point x="850" y="610" type="line"/>
      <point x="766" y="620" type="line"/>
      <point x="766" y="0" type="line"/>
    </contour>
  </outline>
</glyph>
<glyph name="u112E1_u112C0" format="2">
  <advance width="829"/>
  <outline>
    <contour>
      <point x="170" y="-10" type="line"/>
      <point x="170" y="513" type="line" smooth="yes"/>
      <point x="170" y="667"/>
      <point x="233" y="700"/>
      <point x="284" y="700" type="curve" smooth="yes"/>
      <point x="353" y="700"/>
      <point x="387" y="655"/>
      <point x="456" y="556" type="curve" smooth="yes"/>
      <point x="608" y="338" type="line" smooth="yes"/>
      <point x="691" y="219"/>
      <point x="706" y="183"/>
      <point x="706" y="143" type="curve" smooth="yes"/>
      <point x="706" y="97"/>
      <point x="667" y="70"/>
      <point x="616" y="70" type="curve" smooth="yes"/>
      <point x="565" y="70"/>
      <point x="527" y="97"/>
      <point x="527" y="143" type="curve" smooth="yes"/>
      <point x="527" y="194"/>
      <point x="552" y="229"/>
      <point x="641" y="353" type="curve" smooth="yes"/>
      <point x="807" y="584" type="line"/>
      <point x="745" y="630" type="line"/>
      <point x="553" y="363" type="line" smooth="yes"/>
      <point x="492" y="278"/>
      <point x="442" y="205"/>
      <point x="442" y="142" type="curve" smooth="yes"/>
      <point x="442" y="58"/>
      <point x="505" y="-10"/>
      <point x="615" y="-10" type="curve" smooth="yes"/>
      <point x="723" y="-10"/>
      <point x="791" y="55"/>
      <point x="791" y="140" type="curve" smooth="yes"/>
      <point x="791" y="199"/>
      <point x="765" y="248"/>
      <point x="661" y="399" type="curve" smooth="yes"/>
      <point x="511" y="616" type="line" smooth="yes"/>
      <point x="451" y="703"/>
      <point x="395" y="780"/>
      <point x="284" y="780" type="curve" smooth="yes"/>
      <point x="147" y="780"/>
      <point x="85" y="672"/>
      <point x="85" y="522" type="curve" smooth="yes"/>
      <point x="85" y="0" type="line"/>
    </contour>
  </outline>
</glyph>
<glyph name="u112E1_u112C3" format="2">
  <advance width="1382"/>
  <outline>
    <contour>
      <point x="170" y="-10" type="line"/>
      <point x="170" y="513" type="line" smooth="yes"/>
      <point x="170" y="666"/>
      <point x="240" y="700"/>
      <point x="311" y="700" type="curve" smooth="yes"/>
      <point x="407" y="700"/>
      <point x="440" y="611"/>
      <point x="444" y="488" type="curve" smooth="yes"/>
      <point x="461" y="0" type="line"/>
      <point x="536" y="0" type="line"/>
      <point x="730" y="374" type="line"/>
      <point x="712" y="384" type="line"/>
      <point x="718" y="0" type="line"/>
      <point x="784" y="0" type="line"/>
      <point x="860" y="188"/>
      <point x="975" y="285"/>
      <point x="1103" y="285" type="curve" smooth="yes"/>
      <point x="1193" y="285"/>
      <point x="1228" y="243"/>
      <point x="1228" y="176" type="curve" smooth="yes"/>
      <point x="1228" y="117"/>
      <point x="1201" y="70"/>
      <point x="1137" y="70" type="curve" smooth="yes"/>
      <point x="1053" y="70"/>
      <point x="1033" y="153"/>
      <point x="1033" y="228" type="curve" smooth="yes"/>
      <point x="1033" y="411"/>
      <point x="1153" y="540"/>
      <point x="1345" y="540" type="curve"/>
      <point x="1362" y="620" type="line"/>
      <point x="1117" y="620"/>
      <point x="950" y="455"/>
      <point x="950" y="220" type="curve" smooth="yes"/>
      <point x="950" y="81"/>
      <point x="1009" y="-10"/>
      <point x="1135" y="-10" type="curve" smooth="yes"/>
      <point x="1259" y="-10"/>
      <point x="1311" y="78"/>
      <point x="1311" y="169" type="curve" smooth="yes"/>
      <point x="1311" y="251"/>
      <point x="1269" y="362"/>
      <point x="1115" y="362" type="curve" smooth="yes"/>
      <point x="965" y="362"/>
      <point x="837" y="271"/>
      <point x="766" y="111" type="curve"/>
      <point x="791" y="116" type="line"/>
      <point x="786" y="485" type="line"/>
      <point x="715" y="500" type="line"/>
      <point x="521" y="118" type="line"/>
      <point x="540" y="54" type="line"/>
      <point x="524" y="513" type="line" smooth="yes"/>
      <point x="518" y="679"/>
      <point x="459" y="780"/>
      <point x="308" y="780" type="curve" smooth="yes"/>
      <point x="151" y="780"/>
      <point x="85" y="672"/>
      <point x="85" y="522" type="curve" smooth="yes"/>
      <point x="85" y="0" type="line"/>
    </contour>
  </outline>
</glyph>
<glyph name="u112E1_u112D1" format="2">
  <advance width="1229"/>
  <outline>
    <contour>
      <point x="170" y="-10" type="line"/>
      <point x="170" y="513" type="line" smooth="yes"/>
      <point x="170" y="666"/>
      <point x="230" y="700"/>
      <point x="291" y="700" type="curve" smooth="yes"/>
      <point x="391" y="700"/>
      <point x="431" y="610"/>
      <point x="463" y="480" type="curve" smooth="yes"/>
      <point x="487" y="381"/>
      <point x="561" y="123"/>
      <point x="622" y="9" type="curve"/>
      <point x="693" y="-10" type="line"/>
      <point x="891" y="132"/>
      <point x="1076" y="297"/>
      <point x="1218" y="574" type="curve"/>
      <point x="1144" y="615" type="line"/>
      <point x="1044" y="405"/>
      <point x="868" y="210"/>
      <point x="684" y="79" type="curve"/>
      <point x="638" y="164"/>
      <point x="578" y="370"/>
      <point x="546" y="497" type="curve" smooth="yes"/>
      <point x="511" y="635"/>
      <point x="443" y="780"/>
      <point x="288" y="780" type="curve" smooth="yes"/>
      <point x="145" y="780"/>
      <point x="85" y="672"/>
      <point x="85" y="522" type="curve" smooth="yes"/>
      <point x="85" y="0" type="line"/>
    </contour>
  </outline>
</glyph>
<glyph name="u112E1_u112D4" format="2">
  <advance width="1283"/>
  <outline>
    <contour>
      <point x="170" y="-10" type="line"/>
      <point x="170" y="513" type="line" smooth="yes"/>
      <point x="170" y="666"/>
      <point x="230" y="700"/>
      <point x="291" y="700" type="curve" smooth="yes"/>
      <point x="399" y="700"/>
      <point x="436" y="618"/>
      <point x="459" y="513" type="curve" smooth="yes"/>
      <point x="571" y="0" type="line"/>
      <point x="631" y="0" type="line"/>
      <point x="825" y="404" type="line"/>
      <point x="879" y="0" type="line"/>
      <point x="939" y="0" type="line"/>
      <point x="1146" y="380" type="line" smooth="yes"/>
      <point x="1193" y="466"/>
      <point x="1219" y="505"/>
      <point x="1283" y="545" type="curve"/>
      <point x="1260" y="620" type="line"/>
      <point x="1179" y="595"/>
      <point x="1133" y="526"/>
      <point x="1089" y="442" type="curve" smooth="yes"/>
      <point x="933" y="146" type="line"/>
      <point x="886" y="531" type="line"/>
      <point x="817" y="551" type="line"/>
      <point x="622" y="143" type="line"/>
      <point x="532" y="542" type="line" smooth="yes"/>
      <point x="505" y="663"/>
      <point x="451" y="780"/>
      <point x="288" y="780" type="curve" smooth="yes"/>
      <point x="145" y="780"/>
      <point x="85" y="672"/>
      <point x="85" y="522" type="curve" smooth="yes"/>
      <point x="85" y="0" type="line"/>
    </contour>
  </outline>
</glyph>
<glyph name="u112E1_u112D7" format="2">
  <advance width="1009"/>
  <outline>
    <contour>
      <point x="170" y="-10" type="line"/>
      <point x="170" y="513" type="line" smooth="yes"/>
      <point x="170" y="666"/>
      <point x="230" y="700"/>
      <point x="291" y="700" type="curve" smooth="yes"/>
      <point x="406" y="700"/>
      <point x="506" y="513"/>
      <point x="506" y="399" type="curve" smooth="yes"/>
      <point x="506" y="376"/>
      <point x="502" y="356"/>
      <point x="498" y="337" type="curve" smooth="yes"/>
      <point x="429" y="0" type="line"/>
      <point x="512" y="-10" type="line"/>
      <point x="557" y="224" type="line" smooth="yes"/>
      <point x="592" y="408"/>
      <point x="697" y="535"/>
      <point x="781" y="535" type="curve" smooth="yes"/>
      <point x="829" y="535"/>
      <point x="842" y="511"/>
      <point x="842" y="455" type="curve" smooth="yes"/>
      <point x="842" y="413"/>
      <point x="828" y="354"/>
      <point x="812" y="300" type="curve" smooth="yes"/>
      <point x="796" y="247"/>
      <point x="782" y="193"/>
      <point x="782" y="144" type="curve" smooth="yes"/>
      <point x="782" y="41"/>
      <point x="837" y="-10"/>
      <point x="938" y="-10" type="curve" smooth="yes"/>
      <point x="953" y="-10"/>
      <point x="965" y="-9"/>
      <point x="983" y="-7" type="curve"/>
      <point x="989" y="73" type="line"/>
      <point x="975" y="71"/>
      <point x="962" y="70"/>
      <point x="951" y="70" type="curve" smooth="yes"/>
      <point x="907" y="70"/>
      <point x="866" y="91"/>
      <point x="866" y="152" type="curve" smooth="yes"/>
      <point x="866" y="182"/>
      <point x="877" y="228"/>
      <point x="891" y="279" type="curve" smooth="yes"/>
      <point x="908" y="342"/>
      <point x="926" y="413"/>
      <point x="926" y="470" type="curve" smooth="yes"/>
      <point x="926" y="567"/>
      <point x="884" y="620"/>
      <point x="796" y="620" type="curve" smooth="yes"/>
      <point x="706" y="620"/>
      <point x="631" y="545"/>
      <point x="583" y="462" type="curve"/>
      <point x="542" y="624"/>
      <point x="438" y="780"/>
      <point x="288" y="780" type="curve" smooth="yes"/>
      <point x="145" y="780"/>
      <point x="85" y="672"/>
      <point x="85" y="522" type="curve" smooth="yes"/>
      <point x="85" y="0" type="line"/>
    </contour>
  </outline>
</glyph>
<glyph name="u112E2.alt" format="2">
  <advance width="274"/>
  <outline>
    <contour>
      <point x="180" y="-10" type="line"/>
      <point x="180" y="504" type="line" smooth="yes"/>
      <point x="180" y="674"/>
      <point x="107" y="780"/>
      <point x="-42" y="780" type="curve" smooth="yes"/>
      <point x="-142" y="780"/>
      <point x="-222" y="729"/>
      <point x="-271" y="620" type="curve"/>
      <point x="-195" y="590" type="line"/>
      <point x="-169" y="655"/>
      <point x="-130" y="700"/>
      <point x="-52" y="700" type="curve" smooth="yes"/>
      <point x="33" y="700"/>
      <point x="95" y="655"/>
      <point x="95" y="494" type="curve" smooth="yes"/>
      <point x="95" y="0" type="line"/>
    </contour>
  </outline>
</glyph>
<glyph name="u112E7.alt" format="2">
  <outline>
    <contour>
      <point x="427" y="575" type="line"/>
      <point x="431" y="597"/>
      <point x="432" y="625"/>
      <point x="432" y="636" type="curve" smooth="yes"/>
      <point x="432" y="724"/>
      <point x="382" y="771"/>
      <point x="315" y="771" type="curve" smooth="yes"/>
      <point x="286" y="771"/>
      <point x="256" y="765"/>
      <point x="214" y="755" type="curve" smooth="yes"/>
      <point x="186" y="748"/>
      <point x="149" y="739"/>
      <point x="127" y="739" type="curve" smooth="yes"/>
      <point x="90" y="739"/>
      <point x="78" y="768"/>
      <point x="72" y="815" type="curve"/>
      <point x="0" y="801" type="line"/>
      <point x="0" y="678"/>
      <point x="78" y="668"/>
      <point x="118" y="668" type="curve" smooth="yes"/>
      <point x="140" y="668"/>
      <point x="176" y="671"/>
      <point x="210" y="681" type="curve" smooth="yes"/>
      <point x="252" y="693"/>
      <point x="278" y="700"/>
      <point x="297" y="700" type="curve" smooth="yes"/>
      <point x="342" y="700"/>
      <point x="352" y="658"/>
      <point x="352" y="622" type="curve" smooth="yes"/>
      <point x="352" y="613"/>
      <point x="351" y="601"/>
      <point x="348" y="590" type="curve"/>
    </contour>
  </outline>
</glyph>
<glyph name="u112E7_straight" format="2">
  <outline>
    <contour>
      <point x="451" y="575" type="line"/>
      <point x="536" y="575" type="line"/>
      <point x="536" y="636" type="line" smooth="yes"/>
      <point x="536" y="724"/>
      <point x="472" y="771"/>
      <point x="391" y="771" type="curve" smooth="yes"/>
      <point x="354" y="771"/>
      <point x="298" y="761"/>
      <point x="255" y="753" type="curve" smooth="yes"/>
      <point x="216" y="746"/>
      <point x="176" y="739"/>
      <point x="148" y="739" type="curve" smooth="yes"/>
      <point x="92" y="739"/>
      <point x="80" y="772"/>
      <point x="72" y="815" type="curve"/>
      <point x="0" y="802" type="line"/>
      <point x="0" y="677"/>
      <point x="88" y="668"/>
      <point x="146" y="668" type="curve" smooth="yes"/>
      <point x="184" y="668"/>
      <point x="226" y="676"/>
      <point x="261" y="684" type="curve" smooth="yes"/>
      <point x="300" y="693"/>
      <point x="340" y="700"/>
      <point x="369" y="700" type="curve" smooth="yes"/>
      <point x="437" y="700"/>
      <point x="451" y="658"/>
      <point x="451" y="622" type="curve" smooth="yes"/>
    </contour>
  </outline>
</glyph>
<glyph name="u112E8.alt" format="2">
  <outline>
    <contour>
      <point x="312" y="556" type="curve" smooth="yes"/>
      <point x="389" y="556"/>
      <point x="431" y="604"/>
      <point x="431" y="676" type="curve" smooth="yes"/>
      <point x="431" y="753"/>
      <point x="379" y="794"/>
      <point x="304" y="794" type="curve" smooth="yes"/>
      <point x="265" y="794"/>
      <point x="227" y="784"/>
      <point x="194" y="770" type="curve" smooth="yes"/>
      <point x="170" y="760"/>
      <point x="147" y="754"/>
      <point x="125" y="754" type="curve" smooth="yes"/>
      <point x="87" y="754"/>
      <point x="77" y="782"/>
      <point x="71" y="825" type="curve"/>
      <point x="0" y="812" type="line"/>
      <point x="0" y="694"/>
      <point x="73" y="683"/>
      <point x="112" y="683" type="curve" smooth="yes"/>
      <point x="148" y="683"/>
      <point x="176" y="691"/>
      <point x="197" y="701" type="curve"/>
      <point x="195" y="692"/>
      <point x="194" y="682"/>
      <point x="194" y="674" type="curve" smooth="yes"/>
      <point x="194" y="601"/>
      <point x="237" y="556"/>
    </contour>
    <contour>
      <point x="314" y="627" type="curve" smooth="yes"/>
      <point x="284" y="627"/>
      <point x="268" y="647"/>
      <point x="268" y="682" type="curve" smooth="yes"/>
      <point x="268" y="697"/>
      <point x="270" y="712"/>
      <point x="277" y="723" type="curve"/>
      <point x="288" y="726"/>
      <point x="297" y="728"/>
      <point x="307" y="728" type="curve" smooth="yes"/>
      <point x="339" y="728"/>
      <point x="357" y="708"/>
      <point x="357" y="676" type="curve" smooth="yes"/>
      <point x="357" y="647"/>
      <point x="341" y="627"/>
    </contour>
  </outline>
</glyph>
